<svg id="Iconly_Bulk_Arrow---Left-Square" data-name="Iconly/Bulk/Arrow---Left-Square" xmlns="http://www.w3.org/2000/svg" width="32.004" height="32.004" viewBox="0 0 32.004 32.004">
  <g id="Arrow---Left-Square" transform="translate(32.004 0) rotate(90)">
    <path id="Fill-1" d="M0,9.467v13.07C0,28.2,3.642,32,9.065,32H22.939C28.362,32,32,28.2,32,22.537V9.467C32,3.805,28.36,0,22.937,0H9.065C3.642,0,0,3.805,0,9.467" transform="translate(0 0)" fill="#4960e5" opacity="0.1"/>
    <g id="Iconly_Bulk_Arrow---Left" data-name="Iconly/Bulk/Arrow---Left" transform="translate(9.284 25.603) rotate(-90)">
      <g id="Arrow---Left" transform="translate(20.154) rotate(90)">
        <path id="Fill-1-2" data-name="Fill-1" d="M.366,5.825,0,1.683a1.7,1.7,0,0,1,3.4,0L3.033,5.825a1.333,1.333,0,0,1-2.667,0" transform="translate(5.019 0)" fill="#4960e5" opacity="0.4"/>
        <path id="Fill-4" d="M5.453,10.961c-.065-.065-.342-.307-.571-.534a24.714,24.714,0,0,1-4.505-6.6A5.406,5.406,0,0,1,0,2.489,2.24,2.24,0,0,1,.245,1.471,2.111,2.111,0,0,1,1.258.566,10.961,10.961,0,0,1,2.449.274,26.465,26.465,0,0,1,6.711,0,30.557,30.557,0,0,1,10.84.242,9.248,9.248,0,0,1,12.326.63a2.032,2.032,0,0,1,1.11,1.794v.065a5.633,5.633,0,0,1-.456,1.5,24.682,24.682,0,0,1-4.441,6.45,6.374,6.374,0,0,1-.62.55,1.979,1.979,0,0,1-1.191.388,2.078,2.078,0,0,1-1.274-.42" transform="translate(0 8.773)" fill="#4960e5"/>
      </g>
    </g>
  </g>
</svg>
