<svg xmlns="http://www.w3.org/2000/svg" width="33.004" height="33.004" viewBox="0 0 33.004 33.004">
  <g id="Iconly_Bulk_Arrow---Left-Square" data-name="Iconly/Bulk/Arrow---Left-Square" transform="translate(0.998)">
    <g id="Arrow---Left-Square" transform="translate(32.004 0) rotate(90)">
      <path id="Fill-1" d="M0,9.467v13.07C0,28.2,3.642,32,9.065,32H22.939C28.362,32,32,28.2,32,22.537V9.467C32,3.805,28.36,0,22.937,0H9.065C3.642,0,0,3.805,0,9.467" transform="translate(0.5 0.498)" fill="#fff" stroke="#e6e6e6" stroke-width="1"/>
      <path id="Path_61343" data-name="Path 61343" d="M6.687,13.226c-.08-.078-.42-.371-.7-.644A29.787,29.787,0,0,1,.46,4.624,6.34,6.34,0,0,1,0,3,2.655,2.655,0,0,1,.3,1.775,2.573,2.573,0,0,1,1.541.684,13.514,13.514,0,0,1,3,.332,32.93,32.93,0,0,1,8.229,0,38.074,38.074,0,0,1,13.3.293a11.666,11.666,0,0,1,1.822.468A2.451,2.451,0,0,1,16.48,2.927V3a6.7,6.7,0,0,1-.562,1.814A29.788,29.788,0,0,1,10.471,12.6a7.772,7.772,0,0,1-.761.662,2.449,2.449,0,0,1-1.461.468,2.575,2.575,0,0,1-1.563-.507" transform="translate(10 25.002) rotate(-90)" fill="#4960e5"/>
    </g>
  </g>
</svg>
