<svg id="Iconly_Bulk_Arrow---Left-Square" data-name="Iconly/Bulk/Arrow---Left-Square" xmlns="http://www.w3.org/2000/svg" width="32.004" height="32.004" viewBox="0 0 32.004 32.004">
  <g id="Arrow---Left-Square" transform="translate(32.004 0) rotate(90)">
    <path id="Fill-1" d="M0,9.467v13.07C0,28.2,3.642,32,9.065,32H22.939C28.362,32,32,28.2,32,22.537V9.467C32,3.805,28.36,0,22.937,0H9.065C3.642,0,0,3.805,0,9.467" transform="translate(0 0)" fill="#4960e5" opacity="0.1"/>
    <g id="Iconly_Bulk_Category" data-name="Iconly/Bulk/Category" transform="translate(6.401 25.603) rotate(-90)">
      <g id="Category" transform="translate(0 0)">
        <path id="Fill-1-2" data-name="Fill-1" d="M2.438,0H5.69A2.448,2.448,0,0,1,8.129,2.459v3.28A2.448,2.448,0,0,1,5.69,8.2H2.438A2.448,2.448,0,0,1,0,5.738V2.459A2.448,2.448,0,0,1,2.438,0" transform="translate(11.081)" fill="#4960e5" opacity="0.4"/>
        <path id="Combined-Shape" d="M5.69,11.012a2.448,2.448,0,0,1,2.438,2.459v3.28A2.449,2.449,0,0,1,5.69,19.21H2.438A2.449,2.449,0,0,1,0,16.751v-3.28a2.448,2.448,0,0,1,2.438-2.459Zm11.081,0a2.448,2.448,0,0,1,2.438,2.459v3.28a2.449,2.449,0,0,1-2.438,2.459H13.519a2.449,2.449,0,0,1-2.438-2.459v-3.28a2.448,2.448,0,0,1,2.438-2.459ZM5.69,0A2.448,2.448,0,0,1,8.129,2.459v3.28A2.448,2.448,0,0,1,5.69,8.2H2.438A2.448,2.448,0,0,1,0,5.738V2.459A2.448,2.448,0,0,1,2.438,0Z" transform="translate(0 0)" fill="#4960e5"/>
      </g>
    </g>
  </g>
</svg>
