<svg id="Arrow---Left-Square" xmlns="http://www.w3.org/2000/svg" width="32.004" height="31.716" viewBox="0 0 32.004 31.716">
  <g id="Arrow---Left-Square-2" data-name="Arrow---Left-Square" transform="translate(32.004 -0.355) rotate(90)">
    <path id="Fill-1" d="M0,9.467v13.07C0,28.2,3.609,32,8.983,32H22.732c5.374,0,8.983-3.8,8.983-9.467V9.467C31.716,3.805,28.1,0,22.731,0H8.983C3.609,0,0,3.805,0,9.467" transform="translate(0.355 0)" fill="#4960e5" opacity="0.1"/>
    <g id="Iconly_Bulk_Volume-Off" data-name="Iconly/Bulk/Volume-Off" transform="translate(10.289 23.124) rotate(-90)">
      <g id="Volume-Off">
        <path id="Combined-Shape" d="M8.6,7.169l.051.005c.276.071.33.467.326.778-.013.9-.044,1.531-.092,1.919h0l-.034.32a6.191,6.191,0,0,1-.161,1.016,1.808,1.808,0,0,1-1.684,1.385H6.93a1.954,1.954,0,0,1-1.138-.473h0l-.923-.714a.619.619,0,0,1-.05-.919c.2-.24,3.3-3.067,3.4-3.167a.6.6,0,0,1,.431-.145ZM6.991,0a1.8,1.8,0,0,1,1.69,1.368,5.784,5.784,0,0,1,.165,1.043h0l.06.482c.015.112.03.21.038.346h0L2.123,10.06H1.965A1.872,1.872,0,0,1,.1,8.257a19.507,19.507,0,0,1,0-3.974,1.906,1.906,0,0,1,1.863-1.75h1.3L5.744.5A2.278,2.278,0,0,1,6.991,0Z" transform="translate(0.212 0.297)" fill="#4960e5" opacity="0.4"/>
        <path id="Fill-5" d="M13.291.191a.657.657,0,0,0-.928,0L.192,12.362a.659.659,0,0,0,0,.932.683.683,0,0,0,.462.19.672.672,0,0,0,.465-.192L13.292,1.122a.658.658,0,0,0,0-.931" fill="#4960e5"/>
      </g>
    </g>
  </g>
</svg>
