<svg id="Arrow---Left-Square" xmlns="http://www.w3.org/2000/svg" width="32.004" height="31.716" viewBox="0 0 32.004 31.716">
  <g id="Arrow---Left-Square-2" data-name="Arrow---Left-Square" transform="translate(32.004 -0.355) rotate(90)">
    <path id="Fill-1" d="M0,9.467v13.07C0,28.2,3.609,32,8.983,32H22.732c5.374,0,8.983-3.8,8.983-9.467V9.467C31.716,3.805,28.1,0,22.731,0H8.983C3.609,0,0,3.805,0,9.467" transform="translate(0.355 0)" fill="#4960e5" opacity="0.1"/>
    <g id="Iconly_Bulk_Volume-Up" data-name="Iconly/Bulk/Volume-Up" transform="translate(10.059 24.195) rotate(-90)">
      <g id="Volume-Up" transform="translate(0)">
        <path id="Fill-1-2" data-name="Fill-1" d="M8.6,2.4a7.073,7.073,0,0,0-.161-1.04A1.772,1.772,0,0,0,6.789,0,2.1,2.1,0,0,0,5.581.5L3.175,2.516H1.915A1.879,1.879,0,0,0,.1,4.263a19.414,19.414,0,0,0,0,3.95,1.84,1.84,0,0,0,1.814,1.794h1.26l2.453,2.046a1.874,1.874,0,0,0,1.1.47h.073a1.767,1.767,0,0,0,1.636-1.378A6.293,6.293,0,0,0,8.6,10.135l.033-.319a67.137,67.137,0,0,0,0-7.107Z" transform="translate(0 0)" fill="#4960e5"/>
        <path id="Fill-4" d="M1.162.281A.631.631,0,0,0,.273.116a.666.666,0,0,0-.159.91A5.535,5.535,0,0,1,.979,4.111,5.537,5.537,0,0,1,.114,7.2a.665.665,0,0,0,.16.91.629.629,0,0,0,.889-.164,6.871,6.871,0,0,0,1.094-3.83A6.871,6.871,0,0,0,1.162.281" transform="translate(10.252 2.151)" fill="#4960e5" opacity="0.4"/>
        <path id="Fill-6" d="M1.162.281A.63.63,0,0,0,.273.116a.666.666,0,0,0-.16.91,9.328,9.328,0,0,1,1.464,5.2,9.329,9.329,0,0,1-1.464,5.2.666.666,0,0,0,.161.91.627.627,0,0,0,.363.117.635.635,0,0,0,.525-.281A10.657,10.657,0,0,0,2.854,6.224,10.658,10.658,0,0,0,1.162.281" transform="translate(12.452 0.037)" fill="#4960e5" opacity="0.4"/>
      </g>
    </g>
  </g>
</svg>
