<svg xmlns="http://www.w3.org/2000/svg" width="207.392" height="213.988" viewBox="0 0 207.392 213.988">
  <g id="Layer_2" data-name="Layer 2" transform="translate(0.4 0.4)">
    <g id="Layer_1" data-name="Layer 1" transform="translate(0 0)">
      <g id="Vector">
        <path id="Path_61165" data-name="Path 61165" d="M3779.77,3043.468a23.687,23.687,0,1,1,23.688,23.689A23.689,23.689,0,0,1,3779.77,3043.468Z" transform="translate(-3620.153 -2892.334)" fill="#f3f6ff" fill-rule="evenodd"/>
        <path id="Path_61166" data-name="Path 61166" d="M699,1041.179a59.389,59.389,0,1,1,59.389,59.389A59.389,59.389,0,0,1,699,1041.179Z" transform="translate(-669.792 -940.612)" fill="#e0e4ff" stroke="#4960e5" stroke-width="0.7" fill-rule="evenodd"/>
        <path id="Path_61167" data-name="Path 61167" d="M792.09,2706.866c1.671-1.543,7.535-6.925,8.748-7.473s15.288,15.152,13.9,16.275-8.747,7.9-11.514,9.622A52.472,52.472,0,0,1,792.09,2706.866Z" transform="translate(-758.942 -2585.494)" fill="#fff" fill-rule="evenodd"/>
        <path id="Path_61168" data-name="Path 61168" d="M778.8,2678.353c1.671-1.543,7.327-6.76,8.543-7.309s15.391,16.314,14,17.437-8.768,8.324-10.949,9.706" transform="translate(-746.214 -2558.346)" fill="none" stroke="#1b3c87" stroke-linecap="round" stroke-linejoin="round" stroke-width="0.8"/>
        <path id="Path_61169" data-name="Path 61169" d="M975.539,2340.914c8.065,12.266-11.741,27.658-14.773,28.543s-16.086-17-15.14-19.355S965.8,2326.1,975.539,2340.914Z" transform="translate(-905.931 -2237.277)" fill="#4960e5" fill-rule="evenodd"/>
        <path id="Path_61170" data-name="Path 61170" d="M930.763,2307.6c6.4-4.442,14.373-7.005,19.6.951,8.065,12.266-11.742,27.658-14.773,28.543s-16.086-17-15.14-19.355a16.262,16.262,0,0,1,2.4-3.132" transform="translate(-881.826 -2206.286)" fill="none" stroke="#1b3c87" stroke-linecap="round" stroke-linejoin="round" stroke-width="0.8"/>
        <path id="Path_61171" data-name="Path 61171" d="M1294.888,2211.512c-9.083-.055-18.021,1.693-22.427,5.116-7.154,5.559-11.912,39.921-9.86,50.146a59.416,59.416,0,0,0,63.637,4.146c1.5-12.768-2.2-49.269-8.048-53.709C1313.2,2213.425,1303.972,2211.566,1294.888,2211.512Z" transform="translate(-1209.077 -2118.278)" fill="#4960e5" fill-rule="evenodd"/>
        <path id="Path_61172" data-name="Path 61172" d="M1315.32,2201.14c1.721-7.556,4.026-13.857,6.756-15.978,8.811-6.845,35.752-6.99,45.728.583,6.206,4.712,10.267,45.583,7.719,55.777" transform="translate(-1260.023 -2088.145)" fill="none" stroke="#1b3c87" stroke-linecap="round" stroke-linejoin="round" stroke-width="0.8"/>
        <path id="Path_61173" data-name="Path 61173" d="M1235.065,3223.768a60.343,60.343,0,0,1-.127-11.748" transform="translate(-1182.842 -3076.436)" fill="none" stroke="#1b3c87" stroke-linecap="round" stroke-linejoin="round" stroke-width="0.8"/>
        <path id="Path_61174" data-name="Path 61174" d="M20.641,9,47.774,19.244,36.13,50.081,9,39.837Z" transform="translate(-9 -9)" fill="none" stroke="#b6c6fc" stroke-linecap="round" stroke-linejoin="round" stroke-width="0.8"/>
        <path id="Path_61175" data-name="Path 61175" d="M3158.49,3562.488l5.764,52.418,37.107-63.225Z" transform="translate(-3025.171 -3401.718)" fill="none" stroke="#b6c6fc" stroke-linecap="round" stroke-linejoin="round" stroke-width="0.8"/>
        <path id="Path_61176" data-name="Path 61176" d="M264.83,678.242a15.941,15.941,0,1,1,15.94,15.942A15.941,15.941,0,0,1,264.83,678.242Z" transform="translate(-254.001 -634.646)" fill="none" stroke="#b6c6fc" stroke-linecap="round" stroke-linejoin="round" stroke-width="0.8"/>
        <path id="Path_61177" data-name="Path 61177" d="M2688.9,2854.266c-1.266-1.266-9.99-13.165-10.973-14.285s17.67-16.587,18.817-15.234,5.746,7.789,7.891,11.327C2702.916,2839.179,2693.387,2851.206,2688.9,2854.266Z" transform="translate(-2564.92 -2705.475)" fill="#fff" fill-rule="evenodd"/>
        <path id="Path_61178" data-name="Path 61178" d="M2687.048,2802.48c-1.058-1.443-10.514-14.469-11.5-15.589s17.67-16.587,18.817-15.235a109.6,109.6,0,0,1,8.533,12.551" transform="translate(-2562.639 -2654.632)" fill="none" stroke="#1b3c87" stroke-linecap="round" stroke-linejoin="round" stroke-width="0.8"/>
        <path id="Path_61179" data-name="Path 61179" d="M2344.252,2276.607c9.419-6.463,32.152,15.734,32.1,22.351s-20.269,18.639-23.636,16.9C2349,2313.949,2329.8,2286.518,2344.252,2276.607Z" transform="translate(-2240.311 -2179.501)" fill="#4960e5" fill-rule="evenodd"/>
        <path id="Path_61180" data-name="Path 61180" d="M2318.494,2263.8c-1.27-6.152-.455-12.054,4.789-15.65,9.421-6.462,32.153,15.735,32.095,22.353s-20.269,18.639-23.636,16.9c-1.077-.556-3.46-3.262-5.947-7.066" transform="translate(-2220.229 -2152.249)" fill="none" stroke="#1b3c87" stroke-linecap="round" stroke-linejoin="round" stroke-width="0.8"/>
        <path id="Path_61181" data-name="Path 61181" d="M699,1041.179a59.389,59.389,0,1,1,59.389,59.389A59.389,59.389,0,0,1,699,1041.179Z" transform="translate(-669.792 -940.612)" fill="none" stroke="#1b3c87" stroke-linecap="round" stroke-linejoin="round" stroke-width="0.8"/>
        <path id="Path_61182" data-name="Path 61182" d="M3307.982,2575.067c.058-1.706,3.383-2.4,7.427-1.546s7.274,2.926,7.216,4.632-3.384,2.4-7.427,1.546S3307.922,2576.772,3307.982,2575.067Z" transform="translate(-3168.334 -2464.614)" fill="#fff" fill-rule="evenodd"/>
        <path id="Path_61183" data-name="Path 61183" d="M3336.314,2420.878c.058-1.706,3.383-2.4,7.427-1.546s7.275,2.926,7.216,4.632-3.384,2.4-7.427,1.546S3336.257,2422.584,3336.314,2420.878Z" transform="translate(-3195.468 -2316.953)" fill="#fff" fill-rule="evenodd"/>
        <path id="Path_61184" data-name="Path 61184" d="M3332.653,2261.532c.058-1.706,3.383-2.4,7.427-1.546s7.274,2.926,7.215,4.632-3.384,2.4-7.427,1.546S3332.594,2263.238,3332.653,2261.532Z" transform="translate(-3191.961 -2164.353)" fill="#fff" fill-rule="evenodd"/>
        <path id="Path_61185" data-name="Path 61185" d="M3371.93,2242.936a13.578,13.578,0,0,1,5.053.217c4.043.852,7.274,2.926,7.216,4.632-.04,1.152-1.569,1.842-3.8,1.905" transform="translate(-3229.576 -2148.232)" fill="none" stroke="#1b3c87" stroke-linecap="round" stroke-linejoin="round" stroke-width="0.8"/>
        <path id="Path_61186" data-name="Path 61186" d="M3348.39,2402.617a11.19,11.19,0,0,1,6.2-.118c4.044.852,7.274,2.926,7.216,4.632-.042,1.244-1.82,1.947-4.35,1.909" transform="translate(-3207.033 -2300.833)" fill="none" stroke="#1b3c87" stroke-linecap="round" stroke-linejoin="round" stroke-width="0.8"/>
        <path id="Path_61187" data-name="Path 61187" d="M3368,2556.358a14.947,14.947,0,0,1,4.173.331c4.043.852,7.273,2.925,7.216,4.632-.037,1.066-1.349,1.736-3.316,1.881" transform="translate(-3225.813 -2448.495)" fill="none" stroke="#1b3c87" stroke-linecap="round" stroke-linejoin="round" stroke-width="0.8"/>
        <path id="Path_61188" data-name="Path 61188" d="M516.883,2320.036c.058-1.706,3.384-2.4,7.427-1.546s7.274,2.925,7.216,4.631-3.383,2.4-7.427,1.546S516.824,2321.742,516.883,2320.036Z" transform="translate(-495.383 -2220.38)" fill="#fff" fill-rule="evenodd"/>
        <path id="Path_61189" data-name="Path 61189" d="M545.242,2165.846c.058-1.707,3.384-2.4,7.427-1.546s7.274,2.926,7.216,4.633-3.383,2.4-7.427,1.546S545.184,2167.552,545.242,2165.846Z" transform="translate(-522.542 -2072.717)" fill="#fff" fill-rule="evenodd"/>
        <path id="Path_61190" data-name="Path 61190" d="M541.583,2006.5c.058-1.706,3.384-2.4,7.427-1.546s7.274,2.926,7.216,4.632-3.383,2.4-7.427,1.546S541.525,2008.2,541.583,2006.5Z" transform="translate(-519.037 -1920.112)" fill="#fff" fill-rule="evenodd"/>
        <path id="Path_61191" data-name="Path 61191" d="M516.859,1986.485c-1.244-.821-1.995-1.739-1.967-2.569.058-1.706,3.384-2.4,7.427-1.546a16.444,16.444,0,0,1,4.722,1.735" transform="translate(-493.477 -1898.488)" fill="none" stroke="#1b3c87" stroke-linecap="round" stroke-linejoin="round" stroke-width="0.8"/>
        <path id="Path_61192" data-name="Path 61192" d="M522.076,2146.688c-2.144-.993-3.563-2.291-3.524-3.426.059-1.706,3.384-2.4,7.427-1.546a16.712,16.712,0,0,1,4.452,1.586" transform="translate(-496.982 -2051.089)" fill="none" stroke="#1b3c87" stroke-linecap="round" stroke-linejoin="round" stroke-width="0.8"/>
        <path id="Path_61193" data-name="Path 61193" d="M496.041,2301.728c-3.38-.985-5.9-2.781-5.849-4.29.058-1.706,3.384-2.4,7.427-1.546a14.779,14.779,0,0,1,5.765,2.431" transform="translate(-469.823 -2198.738)" fill="none" stroke="#1b3c87" stroke-linecap="round" stroke-linejoin="round" stroke-width="0.8"/>
        <path id="Path_61194" data-name="Path 61194" d="M1929.374,1893.933a65.127,65.127,0,0,0-.8,20.568c-1.568,1.185-10.713,2.041-13.228,0,.089-3.877.177-11.631-.177-13.614S1929.76,1891.743,1929.374,1893.933Z" transform="translate(-1834.475 -1813.749)" fill="#fff" fill-rule="evenodd"/>
        <path id="Path_61195" data-name="Path 61195" d="M1891.077,1884.467c.088-3.877.177-11.63-.178-13.613s14.59-9.143,14.205-6.954a65.116,65.116,0,0,0-.8,20.568c-.71.536-2.972,1-5.469,1.168" transform="translate(-1811.232 -1784.987)" fill="none" stroke="#1b3c87" stroke-linecap="round" stroke-linejoin="round" stroke-width="0.8"/>
        <path id="Path_61196" data-name="Path 61196" d="M1543.665,1194.607c.87-10.677,8.883-18.748,17.9-18.028s15.615,9.959,14.744,20.635-8.883,18.749-17.9,18.03S1542.794,1205.284,1543.665,1194.607Z" transform="translate(-1478.629 -1127.113)" fill="#fff" fill-rule="evenodd"/>
        <path id="Path_61197" data-name="Path 61197" d="M1645.7,1931.553a14.613,14.613,0,0,1-9.45,2.61,14.961,14.961,0,0,1-10.512-5.833" transform="translate(-1557.303 -1847.084)" fill="none" stroke="#1b3c87" stroke-linecap="round" stroke-linejoin="round" stroke-width="0.8"/>
        <path id="Path_61198" data-name="Path 61198" d="M1524.756,1177.635a22.412,22.412,0,0,1-.729-7.848c.87-10.677,8.883-18.748,17.9-18.028s15.615,9.959,14.745,20.635a22.25,22.25,0,0,1-2.564,8.771" transform="translate(-1459.822 -1103.344)" fill="none" stroke="#1b3c87" stroke-linecap="round" stroke-linejoin="round" stroke-width="0.8"/>
        <path id="Path_61199" data-name="Path 61199" d="M1919.143,1466.33c.125-1.154.649-2.044,1.171-1.987s.845,1.038.72,2.191-.65,2.044-1.171,1.987S1919.018,1467.484,1919.143,1466.33Z" transform="translate(-1838.26 -1402.736)" fill="#1b3c87" fill-rule="evenodd"/>
        <path id="Path_61330" data-name="Path 61330" d="M1919.143,1466.33c.125-1.154.649-2.044,1.171-1.987s.845,1.038.72,2.191-.65,2.044-1.171,1.987S1919.018,1467.484,1919.143,1466.33Z" transform="translate(-1851.061 -1402.736)" fill="#1b3c87" fill-rule="evenodd"/>
        <path id="Path_61200" data-name="Path 61200" d="M1683.694,1534.19a9.444,9.444,0,0,1-2.934,4.91" transform="translate(-1609.994 -1469.629)" fill="none" stroke="#1b3c87" stroke-linecap="round" stroke-linejoin="round" stroke-width="0.8"/>
        <path id="Path_61201" data-name="Path 61201" d="M1829.2,1753.848a1.9,1.9,0,1,1,1.9,1.9,1.9,1.9,0,0,1-1.9-1.9Z" transform="translate(-1752.151 -1678.171)" fill="none" stroke="#1b3c87" stroke-linecap="round" stroke-linejoin="round" stroke-width="0.8"/>
        <path id="Path_61202" data-name="Path 61202" d="M1578.286,911.548c-1.146-.082-4.435-4.774-1.061-8-1.656-1.613-11.394-8.9-23.095-4.382-1.52-1.546-5.669-7.762-2.088-10.442s5.078.561,5.542,1.849c-1.082-3.4-.473-12.548,8.635-12.65s18.9,26.511,18.505,31.287S1584.309,914.631,1578.286,911.548Z" transform="translate(-1485.367 -841.142)" fill="#fb5d64" fill-rule="evenodd"/>
        <path id="Path_61203" data-name="Path 61203" d="M1786.247,1170.29c3.446,7.142,5.719,14.784,5.525,17.134-.4,4.776-.416,5.421-6.439,2.338-1.145-.082-4.435-4.774-1.061-8a24.164,24.164,0,0,0-16.082-5.828" transform="translate(-1693.723 -1121.133)" fill="none" stroke="#1b3c87" stroke-linecap="round" stroke-linejoin="round" stroke-width="0.8"/>
        <path id="Path_61204" data-name="Path 61204" d="M1523.2,857.2c-1.52-1.546-5.669-7.762-2.088-10.442s5.079.56,5.541,1.849c-1.082-3.4-.472-12.548,8.635-12.65,2.286-.026,4.617,1.633,6.818,4.208" transform="translate(-1455.746 -800.948)" fill="none" stroke="#1b3c87" stroke-linecap="round" stroke-linejoin="round" stroke-width="0.8"/>
        <path id="Path_61205" data-name="Path 61205" d="M2142.63,1631.423a4.172,4.172,0,1,1,4.172,4.172A4.172,4.172,0,0,1,2142.63,1631.423Z" transform="translate(-2052.313 -1558.749)" fill="#fff" fill-rule="evenodd"/>
        <path id="Path_61206" data-name="Path 61206" d="M2185.9,1614.274a4.173,4.173,0,1,1-.229,7.467" transform="translate(-2093.531 -1545.956)" fill="none" stroke="#1b3c87" stroke-linecap="round" stroke-linejoin="round" stroke-width="0.8"/>
      </g>
    </g>
  </g>
</svg>
