<svg xmlns="http://www.w3.org/2000/svg" width="173.063" height="212.587" viewBox="0 0 173.063 212.587">
  <g id="Layer_2" data-name="Layer 2" transform="translate(-35.289 0.35)">
    <g id="vector" transform="translate(35.289)">
      <rect id="Rectangle_12556" data-name="Rectangle 12556" width="173.063" height="2.16" transform="translate(0 208.995)" fill="#d8dfff"/>
      <rect id="Rectangle_12557" data-name="Rectangle 12557" width="27.645" height="208.995" transform="translate(93.795)" fill="#e0e4ff" stroke="#4960e5" stroke-width="0.7"/>
      <path id="Path_60600" data-name="Path 60600" d="M431.348,445.91c-1.034,4.133-6.818,52.161-6.7,56.294,1.127,3.41,31.905,42.246,31.905,42.246l5.683-7.231L441.987,495.18l3.408-46.872Z" transform="translate(-358.779 -349.483)" fill="#282929"/>
      <path id="Path_60601" data-name="Path 60601" d="M420.154,490.2c-.363,3.624-.577,6.2-.558,7.024,1.137,3.41,31.916,42.246,31.916,42.246l5.683-7.231L436.949,490.2l3.408-46.872L426.3,440.93c-.649,2.595-3.162,22.421-4.922,37.882" transform="translate(-354.823 -345.58)" fill="none" stroke="#1b3c87" stroke-linecap="round" stroke-linejoin="round" stroke-width="1"/>
      <path id="Path_60602" data-name="Path 60602" d="M488.65,559.97l4.338-93.48s25.688,3.11,25.688,4.757-20.327,88.714-20.327,88.714Z" transform="translate(-408.945 -365.613)" fill="#282929"/>
      <path id="Path_60603" data-name="Path 60603" d="M382,303.443c.454,1.46,7.5,20.727,9.66,22.49s8.955.755,9.258.352,2.413-19.017,2.413-19.017l-7.545-.5c-.906,2.262-1.762,5.19-2.013,5.986-.649-1.76-6.844-11.517-7.1-12.222" transform="translate(-325.358 -235.541)" fill="#fff"/>
      <path id="Path_60605" data-name="Path 60605" d="M404.912,306.228c-1.836-3.315-6.122-10.114-6.332-10.7" transform="translate(-338.353 -231.622)" fill="none" stroke="#1b3c87" stroke-linecap="round" stroke-linejoin="round" stroke-width="1"/>
      <path id="Path_60606" data-name="Path 60606" d="M407.25,337.821c1.28,2.9,2.433,5.158,3.11,5.715,2.162,1.76,9.258-2.249,9.56-2.651s2.111-16.013,2.111-16.013l-7.545-.5c-.625,1.557-1.224,3.425-1.62,4.7" transform="translate(-345.148 -254.226)" fill="none" stroke="#1b3c87" stroke-linecap="round" stroke-linejoin="round" stroke-width="1"/>
      <path id="Path_60607" data-name="Path 60607" d="M377,309c.238.766,2.288,6.429,4.5,11.894" transform="translate(-321.439 -242.179)" fill="none" stroke="#1b3c87" stroke-linecap="round" stroke-linejoin="round" stroke-width="1"/>
      <path id="Path_60608" data-name="Path 60608" d="M495.837,676.473c-2.072,8.905-3.477,14.921-3.477,14.921h-9.71l2.578-55.554" transform="translate(-404.243 -498.341)" fill="none" stroke="#1b3c87" stroke-linecap="round" stroke-linejoin="round" stroke-width="1"/>
      <path id="Path_60609" data-name="Path 60609" d="M497.56,484.474l1.114-23.984s25.688,3.11,25.688,4.757c0,1.038-8.014,35.77-13.976,61.46" transform="translate(-415.929 -360.91)" fill="none" stroke="#1b3c87" stroke-linecap="round" stroke-linejoin="round" stroke-width="1"/>
      <line id="Line_46" data-name="Line 46" y1="12.841" x2="10.274" transform="translate(95.214 182.933)" fill="none" stroke="#1b3c87" stroke-linecap="round" stroke-linejoin="round" stroke-width="1"/>
      <line id="Line_47" data-name="Line 47" y1="8.027" x2="6.423" transform="translate(100.702 187.115)" fill="none" stroke="#1b3c87" stroke-linecap="round" stroke-linejoin="round" stroke-width="1"/>
      <line id="Line_48" data-name="Line 48" y1="0.923" x2="0.737" transform="translate(97.573 198.133)" fill="none" stroke="#1b3c87" stroke-linecap="round" stroke-linejoin="round" stroke-width="1"/>
      <line id="Line_49" data-name="Line 49" x2="16.66" transform="translate(74.854 193.086)" fill="none" stroke="#1b3c87" stroke-linecap="round" stroke-linejoin="round" stroke-width="1"/>
      <line id="Line_50" data-name="Line 50" x2="16.66" transform="translate(74.539 196.946)" fill="none" stroke="#1b3c87" stroke-linecap="round" stroke-linejoin="round" stroke-width="1"/>
      <line id="Line_51" data-name="Line 51" x2="5.341" y2="11.706" transform="translate(94.57 111.863)" fill="none" stroke="#1b3c87" stroke-linecap="round" stroke-linejoin="round" stroke-width="1"/>
      <path id="Path_60610" data-name="Path 60610" d="M358.791,249.2l-6.176.175L346.8,236.623l6.174-.173Z" transform="translate(-297.77 -185.318)" fill="none" stroke="#1b3c87" stroke-linecap="round" stroke-linejoin="round" stroke-width="1"/>
      <path id="Path_60611" data-name="Path 60611" d="M373.332,296.562c-.216-.865-.846-3.071-1.012-3.432" transform="translate(-317.771 -229.741)" fill="none" stroke="#1b3c87" stroke-linecap="round" stroke-linejoin="round" stroke-width="1"/>
      <path id="Path_60612" data-name="Path 60612" d="M444.083,268.117c-1.066-.666-4.513-2.552-5.2-4.109,1.326-7.757,7.616-20.059,15.87-17.071C456.9,247.673,448.421,270.485,444.083,268.117Z" transform="translate(-369.938 -193.179)" fill="#4960e5"/>
      <path id="Path_60613" data-name="Path 60613" d="M436.856,250.233c2.876-5.622,7.461-10.291,12.895-8.323,2.15.735-6.338,23.554-10.667,21.192-1.066-.666-4.513-2.552-5.2-4.109a27.514,27.514,0,0,1,.7-3.012" transform="translate(-366.019 -189.238)" fill="none" stroke="#1b3c87" stroke-linecap="round" stroke-linejoin="round" stroke-width="1"/>
      <path id="Path_60614" data-name="Path 60614" d="M471.629,241.45c23.063,0,17.553,50.436,13.97,52.628s-31.468-2.193-34.535-6.31C449.87,275.736,455.145,241.45,471.629,241.45Z" transform="translate(-379.361 -189.237)" fill="#4960e5"/>
      <path id="Path_60615" data-name="Path 60615" d="M461.323,386.025c-7.149-1.343-13.84-3.3-15.25-5.19-.432-4.383,0-11.714,1.5-19.266" transform="translate(-375.451 -283.381)" fill="none" stroke="#1b3c87" stroke-linecap="round" stroke-linejoin="round" stroke-width="1"/>
      <path id="Path_60616" data-name="Path 60616" d="M561.57,245.44c14.768,9.3,10.11,48.751,6.948,50.684-1.241.761-5.406.731-10.438.195" transform="translate(-463.361 -192.364)" fill="none" stroke="#1b3c87" stroke-linecap="round" stroke-linejoin="round" stroke-width="1"/>
      <path id="Path_60617" data-name="Path 60617" d="M464.69,255.159c2.939-8.786,7.6-16.275,14.376-17.659" transform="translate(-390.167 -186.141)" fill="none" stroke="#1b3c87" stroke-linecap="round" stroke-linejoin="round" stroke-width="1"/>
      <path id="Path_60618" data-name="Path 60618" d="M575.184,338.564c.307,2.452,2.729,9.227,2.379,10.529S569,376.624,568,377.582c.383.919,2.3,4.974,2.379,5.514,1.226-1.187,17.068-29.475,17.3-31.851s.986-14.934.6-16.543S574.9,336.78,575.184,338.564Z" transform="translate(-471.136 -262.012)" fill="#fff"/>
      <path id="Path_60619" data-name="Path 60619" d="M565.752,423.285a49.642,49.642,0,0,1-2.712,7.136c.383.919,2.3,4.974,2.379,5.514,1.226-1.187,17.068-29.475,17.3-31.851.024-.234.052-.571.082-.984" transform="translate(-467.249 -315.93)" fill="none" stroke="#1b3c87" stroke-linecap="round" stroke-linejoin="round" stroke-width="1"/>
      <path id="Path_60620" data-name="Path 60620" d="M600.479,337.15a53.606,53.606,0,0,0,.048-7.448c-.383-1.609-13.379,2.078-13.1,3.869.307,2.452,2.729,9.227,2.379,10.529-.18.679-2.489,8.1-4.805,15.194" transform="translate(-484.46 -258.094)" fill="none" stroke="#1b3c87" stroke-linecap="round" stroke-linejoin="round" stroke-width="1"/>
      <path id="Path_60621" data-name="Path 60621" d="M590.013,251.707c8.243-1.886,14.333,14.9,13.358,19.177-2.625,2.556-12.919,5.281-15.646,3.834C585.938,271.353,583.943,253.093,590.013,251.707Z" transform="translate(-485.182 -197.161)" fill="#4960e5"/>
      <path id="Path_60622" data-name="Path 60622" d="M581.483,253.216c.484-3.358,1.624-6.014,3.8-6.509,8.243-1.886,14.333,14.9,13.358,19.177-2.625,2.556-12.919,5.281-15.646,3.834-.731-1.378-1.5-5.259-1.73-9.454" transform="translate(-481.529 -193.242)" fill="none" stroke="#1b3c87" stroke-linecap="round" stroke-linejoin="round" stroke-width="1"/>
      <path id="Path_60623" data-name="Path 60623" d="M545.288,204.5c-.216,2.162-1.269,9.377-1.025,11.448-1.047.913-6.749,1.648-8.553-.357a24.593,24.593,0,0,0,.934-7.662C536.553,206.193,545.288,204.5,545.288,204.5Z" transform="translate(-445.829 -160.277)" fill="#fff"/>
      <path id="Path_60624" data-name="Path 60624" d="M536.168,253.064c-1.765.039-3.607-.283-4.5-1.274" transform="translate(-442.662 -197.341)" fill="none" stroke="#1b3c87" stroke-linecap="round" stroke-linejoin="round" stroke-width="1"/>
      <path id="Path_60625" data-name="Path 60625" d="M535.35,207.55a26.616,26.616,0,0,0,.138-3.62c-.089-1.73,8.65-3.43,8.65-3.43-.216,2.162-1.269,9.377-1.025,11.448a3.486,3.486,0,0,1-1.31.558" transform="translate(-445.547 -157.142)" fill="none" stroke="#1b3c87" stroke-linecap="round" stroke-linejoin="round" stroke-width="1"/>
      <ellipse id="Ellipse_34" data-name="Ellipse 34" cx="13.381" cy="10.607" rx="13.381" ry="10.607" transform="matrix(0.054, -0.999, 0.999, 0.054, 80.183, 48.299)" fill="#fff"/>
      <path id="Path_60626" data-name="Path 60626" d="M569.15,110.3a14.6,14.6,0,0,1,4.109,11.357,16.637,16.637,0,0,1-.649,3.791" transform="translate(-472.037 -86.448)" fill="none" stroke="#1b3c87" stroke-linecap="round" stroke-linejoin="round" stroke-width="1"/>
      <path id="Path_60627" data-name="Path 60627" d="M491.165,118.02a16.08,16.08,0,0,1-1.105-6.872c.4-7.381,5.46-13.109,11.31-12.793a8.555,8.555,0,0,1,3.159.789" transform="translate(-410.028 -77.076)" fill="none" stroke="#1b3c87" stroke-linecap="round" stroke-linejoin="round" stroke-width="1"/>
      <path id="Path_60628" data-name="Path 60628" d="M513.495,206.815a8.585,8.585,0,0,1-3.358.5,9.532,9.532,0,0,1-7.086-4.052" transform="translate(-420.231 -159.305)" fill="none" stroke="#1b3c87" stroke-linecap="round" stroke-linejoin="round" stroke-width="1"/>
      <path id="Path_60629" data-name="Path 60629" d="M513.648,113.425c-.028,1.3,1.9,6.366,3.274,6.643a23.564,23.564,0,0,1,2.8,1,16.64,16.64,0,0,0,.649-3.791c.4-7.378-4.022-13.624-9.872-13.931-4.394-.236-8.343,2.937-10.2,7.657C502.747,112.272,507.039,113.676,513.648,113.425Z" transform="translate(-418.068 -80.988)" fill="#fb5d64"/>
      <path id="Path_60630" data-name="Path 60630" d="M514.775,162.93c0,.8-1.384,3.767-2.545,3.767" transform="translate(-427.426 -127.697)" fill="none" stroke="#1b3c87" stroke-linecap="round" stroke-linejoin="round" stroke-width="1"/>
      <ellipse id="Ellipse_35" data-name="Ellipse 35" cx="0.705" cy="1.287" rx="0.705" ry="1.287" transform="translate(82.819 33.211)" fill="#1b3c87"/>
      <ellipse id="Ellipse_55" data-name="Ellipse 55" cx="0.705" cy="1.287" rx="0.705" ry="1.287" transform="translate(90.529 33.211)" fill="#1b3c87"/>
      <path id="Path_60631" data-name="Path 60631" d="M529.66,191.879A5.752,5.752,0,0,0,532.8,189.5" transform="translate(-441.087 -148.521)" fill="none" stroke="#1b3c87" stroke-linecap="round" stroke-linejoin="round" stroke-width="1"/>
      <path id="Path_60632" data-name="Path 60632" d="M518.15,141.86a32.8,32.8,0,0,0,8.414.679,8.25,8.25,0,0,0,.512,2.186" transform="translate(-432.066 -111.183)" fill="none" stroke="#1b3c87" stroke-linecap="round" stroke-linejoin="round" stroke-width="1"/>
      <path id="Path_60633" data-name="Path 60633" d="M508.472,99.082a8.574,8.574,0,0,0-3.028-.727c-4.394-.236-8.343,2.937-10.2,7.657a18.487,18.487,0,0,0,2.145.93" transform="translate(-414.11 -77.077)" fill="none" stroke="#1b3c87" stroke-linecap="round" stroke-linejoin="round" stroke-width="1"/>
      <path id="Path_60634" data-name="Path 60634" d="M573.374,126.208a16.637,16.637,0,0,0,.649-3.791,14.636,14.636,0,0,0-3.892-11.148" transform="translate(-472.805 -87.208)" fill="none" stroke="#1b3c87" stroke-linecap="round" stroke-linejoin="round" stroke-width="1"/>
      <circle id="Ellipse_36" data-name="Ellipse 36" cx="2.919" cy="2.919" r="2.919" transform="translate(95.502 34.809)" fill="#fff"/>
      <path id="Path_60635" data-name="Path 60635" d="M563.71,157.673a2.915,2.915,0,1,1,1.421,5.16" transform="translate(-467.774 -123.073)" fill="none" stroke="#1b3c87" stroke-linecap="round" stroke-linejoin="round" stroke-width="1"/>
      <path id="Path_60636" data-name="Path 60636" d="M363.791,254.2l-6.176.175L351.8,241.623l6.174-.173Z" transform="translate(-301.689 -189.237)" fill="#3b3744"/>
      <path id="Path_60637" data-name="Path 60637" d="M583.177,879.65l5.817,7.035,4.8.945L584.1,901.664H574.96l5.635-3.22-.839-7.787-3.142-2.8" transform="translate(-476.591 -689.427)" fill="#fff"/>
      <path id="Path_60638" data-name="Path 60638" d="M584.083,919.171l-4.987,7.221H569.96l5.635-3.22-.839-7.787-3.142-2.8" transform="translate(-472.672 -715.237)" fill="none" stroke="#1b3c87" stroke-linecap="round" stroke-linejoin="round" stroke-width="1"/>
      <path id="Path_60639" data-name="Path 60639" d="M607.96,874.65l5.817,7.035,4.8.945-1.25,1.808" transform="translate(-502.455 -685.509)" fill="none" stroke="#1b3c87" stroke-linecap="round" stroke-linejoin="round" stroke-width="1"/>
      <path id="Path_60640" data-name="Path 60640" d="M455.229,915.74l-1.016,7.7,1.717,6.509H434.16l11.409-8.749.035-5.46" transform="translate(-366.239 -717.713)" fill="#fff"/>
      <path id="Path_60641" data-name="Path 60641" d="M472.66,917.736l2-1.535.035-5.46" transform="translate(-396.413 -713.794)" fill="none" stroke="#1b3c87" stroke-linecap="round" stroke-linejoin="round" stroke-width="1"/>
      <path id="Path_60642" data-name="Path 60642" d="M449.732,928.15l-.519,3.936,1.717,6.509H429.16l5.231-4.014" transform="translate(-362.32 -727.439)" fill="none" stroke="#1b3c87" stroke-linecap="round" stroke-linejoin="round" stroke-width="1"/>
      <path id="Path_60643" data-name="Path 60643" d="M383.358,260.007c.037-1.354,1.062-5.19,0-5.558s-5.677-2.082-5.049-.649.919,1.717,1.687,2.193" transform="translate(-322.419 -198.476)" fill="#fff"/>
      <path id="Path_60644" data-name="Path 60644" d="M379.358,256.007c.037-1.354,1.062-5.19,0-5.558s-5.677-2.082-5.049-.649.919,1.717,1.687,2.193" transform="translate(-319.284 -195.341)" fill="none" stroke="#1b3c87" stroke-linecap="round" stroke-linejoin="round" stroke-width="1"/>
      <path id="Path_60645" data-name="Path 60645" d="M362.731,276.051c-2.379-1.081-4.459-4.416,0-3.027" transform="translate(-308.202 -213.722)" fill="#fff"/>
      <path id="Path_60646" data-name="Path 60646" d="M356.63,264.957c-1.514-1.352-2.031-3.153,1.453-2.069" transform="translate(-304.562 -205.778)" fill="#fff"/>
      <path id="Path_60647" data-name="Path 60647" d="M358.731,272.051c-2.379-1.081-4.459-4.416,0-3.027" transform="translate(-305.067 -210.587)" fill="none" stroke="#1b3c87" stroke-linecap="round" stroke-linejoin="round" stroke-width="1"/>
      <path id="Path_60648" data-name="Path 60648" d="M352.63,260.957c-1.514-1.352-2.031-3.153,1.453-2.069" transform="translate(-301.427 -202.643)" fill="none" stroke="#1b3c87" stroke-linecap="round" stroke-linejoin="round" stroke-width="1"/>
      <path id="Path_60649" data-name="Path 60649" d="M262.8,82.69H229.878a2.178,2.178,0,0,0-2.178,2.178V97.559a2.178,2.178,0,0,0,2.178,2.178h9.158l7.3,9.619,7.3-9.619H262.8a2.178,2.178,0,0,0,2.178-2.178V84.868A2.178,2.178,0,0,0,262.8,82.69Z" transform="translate(-204.425 -64.808)" fill="#d8dfff"/>
      <path id="Path_61331" data-name="Path 61331" d="M262.8,82.69H229.878a2.178,2.178,0,0,0-2.178,2.178V97.559a2.178,2.178,0,0,0,2.178,2.178h9.158l7.3,9.619,7.3-9.619H262.8a2.178,2.178,0,0,0,2.178-2.178V84.868A2.178,2.178,0,0,0,262.8,82.69Z" transform="translate(-206.425 -64.808)" fill="none" stroke="#4960e5" stroke-width="0.7"/>
      <circle id="Ellipse_37" data-name="Ellipse 37" cx="3.521" cy="3.521" r="3.521" transform="translate(28.078 22.78)" fill="#fff"/>
      <line id="Line_52" data-name="Line 52" x2="17.203" transform="translate(38.903 23.993)" fill="none" stroke="#fff" stroke-linecap="round" stroke-miterlimit="10" stroke-width="1"/>
      <line id="Line_53" data-name="Line 53" x2="8.886" transform="translate(38.903 28.063)" fill="none" stroke="#fff" stroke-linecap="round" stroke-miterlimit="10" stroke-width="1"/>
    </g>
  </g>
</svg>
