<svg xmlns="http://www.w3.org/2000/svg" width="201.495" height="180.315" viewBox="0 0 201.495 180.315">
  <g id="Layer_2" data-name="Layer 2" transform="translate(0.5)">
    <g id="Layer_1" data-name="Layer 1" transform="translate(0 0)">
      <path id="Path_61207" data-name="Path 61207" d="M296.169,22.971C309.348,37.658,316.218,56.2,318.146,74.5c1.893,18.3-1.157,36.383-8.555,54.645-7.361,18.227-19.068,36.628-36.278,45.286-17.245,8.657-40.029,7.536-57.064-1.893-17-9.429-28.284-27.2-39.886-45.6S152.809,89.5,156.875,74.462,180.99,48.42,198.2,34.433c17.21-13.95,31.546-30.88,48.44-33.93C263.536-2.511,282.99,8.285,296.169,22.971Z" transform="translate(-150.26 0.004)" fill="rgba(73,96,229,0.05)"/>
      <path id="Path_61208" data-name="Path 61208" d="M40.544,2053.37,29.1,2021.735,17.66,1990.1l33.118,5.909,33.118,5.908L62.22,2027.644Z" transform="translate(-17.66 -1906.645)" fill="none" stroke="#b7c7fb" stroke-linecap="round" stroke-linejoin="round" stroke-width="1"/>
      <path id="Path_61209" data-name="Path 61209" d="M302.14,645.31H409.259V748.442H302.14Z" transform="translate(-290.21 -618.249)" fill="#e0e4ff" stroke="#4960e5" stroke-width="0.7" fill-rule="evenodd"/>
      <path id="Path_61210" data-name="Path 61210" d="M1043,1049.38h59.694v4.12H1043Z" transform="translate(-1000.002 -1005.374)" fill="#3e3e3e" fill-rule="evenodd"/>
      <path id="Path_61211" data-name="Path 61211" d="M1043,1487.41h59.694v4.12H1043Z" transform="translate(-1000.002 -1425.036)" fill="#3e3e3e" fill-rule="evenodd"/>
      <path id="Path_61212" data-name="Path 61212" d="M1043,1925.43h59.694v4.121H1043Z" transform="translate(-1000.002 -1844.687)" fill="#3e3e3e" fill-rule="evenodd"/>
      <path id="Path_61213" data-name="Path 61213" d="M584.676,1004.33l-6.923,6.542-3.313-3.128" transform="translate(-551.092 -962.213)" fill="none" stroke="#3e3e3e" stroke-linecap="round" stroke-linejoin="round" stroke-width="1"/>
      <path id="Path_61214" data-name="Path 61214" d="M584.676,1463.1l-6.923,6.542-3.313-3.128" transform="translate(-551.092 -1401.745)" fill="none" stroke="#3e3e3e" stroke-linecap="round" stroke-linejoin="round" stroke-width="1"/>
      <path id="Path_61215" data-name="Path 61215" d="M584.676,1921.87l-6.923,6.542-3.313-3.128" transform="translate(-551.092 -1841.277)" fill="none" stroke="#3e3e3e" stroke-linecap="round" stroke-linejoin="round" stroke-width="1"/>
      <path id="Path_61216" data-name="Path 61216" d="M1043,2363.47h59.694v4.12H1043Z" transform="translate(-1000.002 -2264.358)" fill="#fff" fill-rule="evenodd"/>
      <path id="Path_61217" data-name="Path 61217" d="M1043,2801.5h59.694v4.121H1043Z" transform="translate(-1000.002 -2684.019)" fill="#fff" fill-rule="evenodd"/>
      <path id="Path_61218" data-name="Path 61218" d="M3575.24,2038.834a25.654,25.654,0,1,1,25.654,25.654A25.654,25.654,0,0,1,3575.24,2038.834Z" transform="translate(-3426.053 -1928.757)" fill="none" stroke="#e9efff" stroke-linecap="round" stroke-linejoin="round" stroke-width="1"/>
      <path id="Path_61219" data-name="Path 61219" d="M2347.418,1723.555c-6.59-1.316-14.781,6.87-14.208,18.951l7.951,1.651S2347.992,1723.67,2347.418,1723.555Z" transform="translate(-2236.08 -1651.145)" fill="#4960e5" fill-rule="evenodd"/>
      <path id="Path_61220" data-name="Path 61220" d="M2307.872,2044.94a24.225,24.225,0,0,0-.184,4.4" transform="translate(-2211.628 -1959.185)" fill="none" stroke="#1b3c87" stroke-linecap="round" stroke-linejoin="round" stroke-width="1"/>
      <path id="Path_61221" data-name="Path 61221" d="M2377.254,1694.837c-4.174-.833-8.989,2.144-11.814,7.506" transform="translate(-2266.986 -1623.631)" fill="none" stroke="#1b3c87" stroke-linecap="round" stroke-linejoin="round" stroke-width="1"/>
      <path id="Path_61222" data-name="Path 61222" d="M2439.243,1608.88c24.881,0,29.694,28.767,26.389,68.842-10.787,4.524-37.292,6.844-49.007-.29C2411.115,1662,2407.915,1608.88,2439.243,1608.88Z" transform="translate(-2312.618 -1541.412)" fill="#4960e5" fill-rule="evenodd"/>
      <path id="Path_61223" data-name="Path 61223" d="M2609.69,556.645c0-10.557,6.374-19.115,14.237-19.115s14.237,8.558,14.237,19.115-6.374,19.115-14.237,19.115S2609.69,567.2,2609.69,556.645Z" transform="translate(-2500.994 -514.989)" fill="#fff" fill-rule="evenodd"/>
      <path id="Path_61224" data-name="Path 61224" d="M2885.75,955.549c0-.923.383-1.669.854-1.669s.854.747.854,1.669-.383,1.668-.854,1.668S2885.75,956.469,2885.75,955.549Z" transform="translate(-2765.477 -913.879)" fill="#1b3c87" fill-rule="evenodd"/>
      <path id="Path_61354" data-name="Path 61354" d="M2885.75,955.549c0-.923.383-1.669.854-1.669s.854.747.854,1.669-.383,1.668-.854,1.668S2885.75,956.469,2885.75,955.549Z" transform="translate(-2774.499 -913.879)" fill="#1b3c87" fill-rule="evenodd"/>
      <path id="Path_61225" data-name="Path 61225" d="M2751.761,1067.74a7.232,7.232,0,0,1-1.761,4.693" transform="translate(-2635.42 -1022.964)" fill="none" stroke="#1b3c87" stroke-linecap="round" stroke-linejoin="round" stroke-width="1"/>
      <path id="Path_61226" data-name="Path 61226" d="M2869.58,1232.144a4.992,4.992,0,0,0,3.635-2.034" transform="translate(-2749.985 -1178.525)" fill="none" stroke="#1b3c87" stroke-linecap="round" stroke-linejoin="round" stroke-width="1"/>
      <path id="Path_61227" data-name="Path 61227" d="M3144.729,2317.436c.806,2.3,2.58,8.423,2.58,8.423s-12.563-6.448-18.468-9.428" transform="translate(-2998.373 -2219.291)" fill="none" stroke="#1b3c87" stroke-linecap="round" stroke-linejoin="round" stroke-width="1"/>
      <path id="Path_61228" data-name="Path 61228" d="M2743.74,2367.29l-1.5,4.945" transform="translate(-2627.985 -2268.018)" fill="none" stroke="#1b3c87" stroke-linecap="round" stroke-linejoin="round" stroke-width="1"/>
      <path id="Path_61229" data-name="Path 61229" d="M2845.845,1993.4l-2,6.579" transform="translate(-2725.333 -1909.807)" fill="none" stroke="#1b3c87" stroke-linecap="round" stroke-linejoin="round" stroke-width="1"/>
      <path id="Path_61230" data-name="Path 61230" d="M2402.423,1848.1c-10.5.671-21.745-.353-28.323-4.358-4.114-11.52-6.941-44.056,4.933-59.8" transform="translate(-2271.877 -1709.131)" fill="none" stroke="#1b3c87" stroke-linecap="round" stroke-linejoin="round" stroke-width="1"/>
      <path id="Path_61231" data-name="Path 61231" d="M2742.92,1577.724a21.937,21.937,0,0,1,10.558-2.5c24.881,0,29.695,28.767,26.388,68.842a41.322,41.322,0,0,1-5.908,1.887" transform="translate(-2628.636 -1509.163)" fill="none" stroke="#1b3c87" stroke-linecap="round" stroke-linejoin="round" stroke-width="1"/>
      <path id="Path_61232" data-name="Path 61232" d="M3602.285,3204.12c0,2.675-.415,42.711-.415,42.711" transform="translate(-3451.567 -3069.756)" fill="none" stroke="#1b3c87" stroke-linecap="round" stroke-linejoin="round" stroke-width="1"/>
      <path id="Path_61233" data-name="Path 61233" d="M2757.55,2194.31c-1.5,0-7.986.826-4.314,6.823,2.1,3.437,2.972,2.448,3.855,1.361a17.591,17.591,0,0,1,2.429,1.768c-.005.011-.009.022-.014.034,1.855,1.447,26.338,22.821,31.373,24.1s10.7-3.7,12.874-7.444c2.4-4.131-2.153-20.889-2.958-22.737s-15.542,4.094-15.542,4.094,2.386,7.139,3.016,10.09c-1.388-.781-23.285-11.483-26.137-14.773,0,.01-.01.026-.015.036C2761.074,2196.6,2758.7,2194.31,2757.55,2194.31Z" transform="translate(-2637.456 -2102.292)" fill="#fff" fill-rule="evenodd"/>
      <path id="Path_61234" data-name="Path 61234" d="M2446.59,3194.82l-.03,38.706" transform="translate(-2344.704 -3060.845)" fill="none" stroke="#1b3c87" stroke-linecap="round" stroke-linejoin="round" stroke-width="1"/>
      <path id="Path_61235" data-name="Path 61235" d="M2889.55,3780.63c1.362,5.823,2.856,12.276,4.3,18.535" transform="translate(-2769.118 -3622.089)" fill="none" stroke="#1b3c87" stroke-linecap="round" stroke-linejoin="round" stroke-width="1"/>
      <path id="Path_61236" data-name="Path 61236" d="M2885.678,1182.1c-.081.972-2.187,17.372-1.432,23.208-1.81,1.54-14.333,1.766-14.076-.54.432-3.864,1.351-9.861.567-12.916" transform="translate(-2750.547 -1132.529)" fill="#fff" fill-rule="evenodd"/>
      <path id="Path_61237" data-name="Path 61237" d="M2843.88,1419.694c.432-3.864,1.072-8.042.645-11.484" transform="translate(-2725.363 -1349.156)" fill="none" stroke="#1b3c87" stroke-linecap="round" stroke-linejoin="round" stroke-width="1"/>
      <path id="Path_61238" data-name="Path 61238" d="M3050.573,1197.4c-.081.972-2.019,15.029-1.262,20.865-.713.608-3.095,1.011-5.7,1.132" transform="translate(-2916.717 -1147.187)" fill="none" stroke="#1b3c87" stroke-linecap="round" stroke-linejoin="round" stroke-width="1"/>
      <path id="Path_61239" data-name="Path 61239" d="M2657.679,1215.5a11.3,11.3,0,0,1-6.242,1.929c-4.96,0-9.327-3.4-11.876-8.568" transform="translate(-2529.611 -1158.167)" fill="none" stroke="#1b3c87" stroke-linecap="round" stroke-linejoin="round" stroke-width="1"/>
      <path id="Path_61240" data-name="Path 61240" d="M2583.675,525.354a25.45,25.45,0,0,1-.426-4.659c0-10.557,6.374-19.115,14.237-19.115s14.237,8.558,14.237,19.115a23.265,23.265,0,0,1-3.358,12.331" transform="translate(-2475.662 -480.546)" fill="none" stroke="#1b3c87" stroke-linecap="round" stroke-linejoin="round" stroke-width="1"/>
      <path id="Path_61241" data-name="Path 61241" d="M2505.261,411.465c1.6.289,4.3-8.338,4.847-13.542.98-9.27-8.742-21.064-16.005-21.794-1.426-.143-3.036,1.324-2.162,3.78-1.761-1.848-6.378-4.291-10.367-4.8-6.059-.778-8.986,3.248-8.986,5.041s1.087,7.407,3.262,9.142c-1.757-.022-3.32.14-3.516,1.563-.6,4.388,1.884,8.352,6.092,7.947a19.386,19.386,0,0,1,1.688-6.475c.7,6.335,16.808,4.212,16.777,5.269-.122,4.074,4.713,4.074,4.881,4.175C2505.506,404.007,2502.714,411,2505.261,411.465Z" transform="translate(-2369.312 -359.281)" fill="#fb5d64" fill-rule="evenodd"/>
      <path id="Path_61242" data-name="Path 61242" d="M2437.082,494.18c.377,2.42,1.41,6.115,3.1,7.464-1.756-.022-3.321.14-3.516,1.563-.519,3.779,1.254,7.242,4.442,7.874" transform="translate(-2335.141 -473.456)" fill="none" stroke="#1b3c87" stroke-linecap="round" stroke-linejoin="round" stroke-width="1"/>
      <path id="Path_61243" data-name="Path 61243" d="M2543.176,341.078c-3.264-4.518-7.758-7.952-11.57-8.335-1.426-.143-3.037,1.324-2.163,3.779-1.759-1.848-6.378-4.291-10.366-4.8a9.282,9.282,0,0,0-6.127,1.121" transform="translate(-2408.31 -317.714)" fill="none" stroke="#1b3c87" stroke-linecap="round" stroke-linejoin="round" stroke-width="1"/>
      <path id="Path_61244" data-name="Path 61244" d="M3194.71,781.508c.088,1.309.319,2.3,1.225,2.464,1.6.29,4.3-8.337,4.846-13.541a14.568,14.568,0,0,0-.325-4.712" transform="translate(-3061.48 -733.609)" fill="none" stroke="#1b3c87" stroke-linecap="round" stroke-linejoin="round" stroke-width="1"/>
      <path id="Path_61245" data-name="Path 61245" d="M2607.15,746.252a10.666,10.666,0,0,1,.718-1.722c.7,6.335,16.808,4.212,16.774,5.269a3.892,3.892,0,0,0,.277,1.647" transform="translate(-2498.56 -713.308)" fill="none" stroke="#1b3c87" stroke-linecap="round" stroke-linejoin="round" stroke-width="1"/>
      <path id="Path_61246" data-name="Path 61246" d="M3096.14,953.284a3.6,3.6,0,1,1,1.4,6.51" transform="translate(-2967.044 -912.691)" fill="#fff" fill-rule="evenodd"/>
      <path id="Path_61247" data-name="Path 61247" d="M3088.32,935.344a3.6,3.6,0,1,1,1.4,6.51" transform="translate(-2959.552 -895.503)" fill="none" stroke="#1b3c87" stroke-linecap="round" stroke-linejoin="round" stroke-width="1"/>
      <path id="Path_61248" data-name="Path 61248" d="M1930.779,2167.68l26.177,4.18-6.33,39.634-26.176-4.18Z" transform="translate(-1844.489 -2076.778)" fill="#b2c3fb" fill-rule="evenodd"/>
      <path id="Path_61249" data-name="Path 61249" d="M1895.46,2147.393l6.329-39.633,26.177,4.181-2.038,12.774" transform="translate(-1816.714 -2019.371)" fill="none" stroke="#1b3c87" stroke-linecap="round" stroke-linejoin="round" stroke-width="1"/>
      <path id="Path_61250" data-name="Path 61250" d="M2113.771,2860.15l-1.959,12.262-17.852-2.852" transform="translate(-2006.891 -2740.21)" fill="none" stroke="#1b3c87" stroke-linecap="round" stroke-linejoin="round" stroke-width="1"/>
      <path id="Path_61251" data-name="Path 61251" d="M1885.447,2553.385c-1.191-9.008-.275-14.9,4.855-16.582,2.071-.678.031,12.49-.794,14.657S1886.424,2551.156,1885.447,2553.385Z" transform="translate(-1806.676 -2430.398)" fill="#fff" fill-rule="evenodd"/>
      <path id="Path_61252" data-name="Path 61252" d="M1871.9,2515.121c-.569-1.868-.244-5.887,6.171-8.161" transform="translate(-1793.958 -2401.831)" fill="none" stroke="#1b3c87" stroke-linecap="round" stroke-linejoin="round" stroke-width="1"/>
      <path id="Path_61253" data-name="Path 61253" d="M1862.219,2646.811c-.568-1.868-.244-5.887,6.172-8.161" transform="translate(-1784.683 -2527.998)" fill="none" stroke="#1b3c87" stroke-linecap="round" stroke-linejoin="round" stroke-width="1"/>
      <path id="Path_61254" data-name="Path 61254" d="M1870.934,2760.082c-.569-1.868-.244-5.888,6.171-8.162" transform="translate(-1793.032 -2636.518)" fill="none" stroke="#1b3c87" stroke-linecap="round" stroke-linejoin="round" stroke-width="1"/>
      <path id="Path_61255" data-name="Path 61255" d="M3058,951.63a3.617,3.617,0,0,1,1.273-1.57" transform="translate(-2930.504 -910.219)" fill="none" stroke="#1b3c87" stroke-linecap="round" stroke-linejoin="round" stroke-width="1"/>
      <path id="Path_61256" data-name="Path 61256" d="M2947.72,2389.081a5.311,5.311,0,0,1-.573,1.908c-2.178,3.746-7.842,8.726-12.874,7.444s-29.219-23.16-31.373-24.1" transform="translate(-2781.908 -2274.763)" fill="none" stroke="#1b3c87" stroke-linecap="round" stroke-linejoin="round" stroke-width="1"/>
      <path id="Path_61257" data-name="Path 61257" d="M3887.51,2229.4a78.228,78.228,0,0,1,2.764,10.952" transform="translate(-3725.229 -2135.91)" fill="none" stroke="#1b3c87" stroke-linecap="round" stroke-linejoin="round" stroke-width="1"/>
      <path id="Path_61258" data-name="Path 61258" d="M2744.821,2158.866c-1.782-5-5.622-3.631-9.361-.37" transform="translate(-2621.489 -2065.178)" fill="none" stroke="#1b3c87" stroke-linecap="round" stroke-linejoin="round" stroke-width="1"/>
      <path id="Path_61259" data-name="Path 61259" d="M2749.821,2249.414a9.464,9.464,0,0,0-4.831,1.925" transform="translate(-2630.62 -2155.08)" fill="none" stroke="#1b3c87" stroke-linecap="round" stroke-linejoin="round" stroke-width="1"/>
      <path id="Path_61260" data-name="Path 61260" d="M2777.855,2323.889c-1.132-.025-2.977.886-4.395,1.58" transform="translate(-2657.896 -2226.436)" fill="none" stroke="#1b3c87" stroke-linecap="round" stroke-linejoin="round" stroke-width="1"/>
      <path id="Path_61261" data-name="Path 61261" d="M3378.641,1673.753c11.688-3.974,22.927,21.276,22.377,23.923s-18.949,7.985-21.069,6.314S3371.87,1676.054,3378.641,1673.753Z" transform="translate(-3234.687 -1603.158)" fill="#4960e5" fill-rule="evenodd"/>
      <path id="Path_61262" data-name="Path 61262" d="M3368.47,2083.094c-2.279.381-4.043.442-4.617-.01-.932-.735-2.606-6.22-3.614-12.333" transform="translate(-3220.069 -1983.913)" fill="none" stroke="#1b3c87" stroke-linecap="round" stroke-linejoin="round" stroke-width="1"/>
      <path id="Path_61263" data-name="Path 61263" d="M3503.37,1635.73c10.247,1.475,19.173,21.9,18.681,24.262-.3,1.444-5.913,3.69-11.295,5.158" transform="translate(-3357.197 -1567.136)" fill="none" stroke="#1b3c87" stroke-linecap="round" stroke-linejoin="round" stroke-width="1"/>
      <path id="Path_61264" data-name="Path 61264" d="M2523.281,3292.215l.038-40.417-48.378-.308-.171,40.725Z" transform="translate(-2371.732 -3115.139)" fill="#3c3744" fill-rule="evenodd"/>
    </g>
  </g>
</svg>
