<svg xmlns="http://www.w3.org/2000/svg" width="25.075" height="22.569" viewBox="0 0 25.075 22.569">
  <g id="Iconly_Bulk_Message" data-name="Iconly/Bulk/Message" transform="translate(-2 -3)">
    <g id="Group" transform="translate(2 3)">
      <path id="Fill-1" d="M25.075,14.753A6.327,6.327,0,0,1,18.769,21.1H6.332A6.327,6.327,0,0,1,0,14.778v-.013s.008-5.549.018-8.34a.625.625,0,0,1,1.013-.491C4.01,8.3,9.337,12.607,9.4,12.663a5.1,5.1,0,0,0,3.172,1.116,5.032,5.032,0,0,0,3.172-1.13c.066-.044,5.275-4.224,8.3-6.626a.627.627,0,0,1,1.017.489c.013,2.77.013,8.241.013,8.241" transform="translate(0 1.471)" fill="#6d757c" opacity="0.4"/>
      <path id="Fill-4" d="M24.291,3.353A6.313,6.313,0,0,0,18.717,0H6.2A6.313,6.313,0,0,0,.63,3.353,1.083,1.083,0,0,0,.907,4.7l9.309,7.446a3.544,3.544,0,0,0,2.232.789h.025A3.544,3.544,0,0,0,14.7,12.15L24.014,4.7a1.083,1.083,0,0,0,.277-1.352" transform="translate(0.128 0)" fill="#6d757c"/>
    </g>
  </g>
</svg>
