<svg id="Play" xmlns="http://www.w3.org/2000/svg" width="39.093" height="39.093" viewBox="0 0 39.093 39.093">
  <path id="Fill-1" d="M39.093,19.556A19.546,19.546,0,1,1,19.546,0,19.57,19.57,0,0,1,39.093,19.556" fill="#fff" opacity="0.2"/>
  <g id="noun-switch-3233509" transform="translate(9.447 8.981)">
    <path id="Path_61335" data-name="Path 61335" d="M111.13,63.134a8.878,8.878,0,0,1,1.771,1.06l-.264-.205a8.884,8.884,0,0,1,1.579,1.581l-.205-.264a8.972,8.972,0,0,1,1.134,1.941c-.044-.1-.087-.209-.131-.312a8.725,8.725,0,0,1,.6,2.22c-.015-.116-.031-.231-.046-.349a8.932,8.932,0,0,1,0,2.351c.015-.116.031-.231.046-.349a8.766,8.766,0,0,1-.6,2.205c.044-.1.087-.209.131-.312A8.735,8.735,0,0,1,114,74.657l.205-.264a8.919,8.919,0,0,1-1.57,1.57l.264-.205a8.9,8.9,0,0,1-1.954,1.143l.312-.131a8.817,8.817,0,0,1-2.205.6l.349-.046a8.9,8.9,0,0,1-2.36,0l.349.046a8.766,8.766,0,0,1-2.205-.6l.312.131a8.736,8.736,0,0,1-1.954-1.143l.264.205a8.919,8.919,0,0,1-1.57-1.57l.205.264A8.9,8.9,0,0,1,101.3,72.7c.044.1.087.209.131.312a8.816,8.816,0,0,1-.6-2.205c.015.116.031.231.046.349a8.932,8.932,0,0,1,0-2.351c-.015.116-.031.231-.046.349a8.91,8.91,0,0,1,.6-2.22c-.044.1-.087.209-.131.312a8.867,8.867,0,0,1,1.134-1.941l-.205.264a8.954,8.954,0,0,1,1.579-1.581l-.264.205a8.88,8.88,0,0,1,1.771-1.06,1.468,1.468,0,0,0,.6-.783,1.308,1.308,0,0,0-.914-1.61l-.349-.046a1.307,1.307,0,0,0-.661.179,10.061,10.061,0,0,0-5.3,5.92,10.323,10.323,0,0,0-.5,2.772,10.039,10.039,0,1,0,15.3-8.14,8.921,8.921,0,0,0-1.038-.552.956.956,0,0,0-.486-.155.985.985,0,0,0-.521.024,1.337,1.337,0,0,0-.783.6,1.315,1.315,0,0,0-.131,1.008,1.271,1.271,0,0,0,.6.781Z" transform="translate(-98.181 -58.863)" fill="#fff"/>
    <path id="Path_61336" data-name="Path 61336" d="M317.19,16.051V22.71a1.311,1.311,0,0,0,1.309,1.309,1.32,1.32,0,0,0,.925-.384,1.357,1.357,0,0,0,.384-.925V16.051a1.348,1.348,0,0,0-.384-.925,1.306,1.306,0,0,0-1.85,0A1.353,1.353,0,0,0,317.19,16.051Z" transform="translate(-308.455 -14.741)" fill="#fff"/>
  </g>
</svg>
