<svg xmlns="http://www.w3.org/2000/svg" width="39.094" height="39.094" viewBox="0 0 39.094 39.094">
  <g id="Iconly_Bulk_Play" data-name="Iconly/Bulk/Play" transform="translate(-2 -2)">
    <g id="Play" transform="translate(2 2)">
      <path id="Fill-1" d="M39.094,19.557A19.547,19.547,0,1,1,19.547,0,19.571,19.571,0,0,1,39.094,19.557" fill="#fff" opacity="0.4"/>
      <path id="Fill-4" d="M20.683,13.828a2.253,2.253,0,0,1-.466,1.387,7.547,7.547,0,0,1-.544.608l-.117.114A29.619,29.619,0,0,1,11.8,21.106a6.792,6.792,0,0,1-1.808.532H9.915a2.452,2.452,0,0,1-2.157-1.29,10.677,10.677,0,0,1-.466-1.729A34.46,34.46,0,0,1,7,13.809,29.737,29.737,0,0,1,7.33,8.85a12.474,12.474,0,0,1,.35-1.387A2.493,2.493,0,0,1,8.769,6.285,2.78,2.78,0,0,1,9.993,6a6.73,6.73,0,0,1,1.613.437,29.758,29.758,0,0,1,7.93,5.244c.272.266.564.591.641.665a2.364,2.364,0,0,1,.505,1.482" transform="translate(6.683 5.728)" fill="#fff"/>
    </g>
  </g>
</svg>
