<svg xmlns="http://www.w3.org/2000/svg" width="32" height="32" viewBox="0 0 32 32">
  <g id="Group_38752" data-name="Group 38752" transform="translate(-273)">
    <rect id="pexels-photo-417473" width="32" height="32" rx="16" transform="translate(273)" fill="#6d757c" opacity="0.05"/>
    <g id="Iconly_Light-Outline_Info-Square" data-name="Iconly/Light-Outline/Info-Square" transform="translate(279 6)">
      <g id="Info-Square" transform="translate(2 2)">
        <path id="Combined-Shape" d="M11.467,0A4.389,4.389,0,0,1,16,4.733v6.534A4.389,4.389,0,0,1,11.466,16H4.531A4.388,4.388,0,0,1,0,11.267V4.733A4.388,4.388,0,0,1,4.531,0Zm0,1.2H4.531A3.22,3.22,0,0,0,1.2,4.733v6.534A3.22,3.22,0,0,0,4.531,14.8h6.934A3.221,3.221,0,0,0,14.8,11.267V4.733A3.221,3.221,0,0,0,11.467,1.2ZM8,7.4a.6.6,0,0,1,.6.6v3.2a.6.6,0,1,1-1.2,0V8A.6.6,0,0,1,8,7.4ZM8,4.163a.8.8,0,1,1-.008,0Z" transform="translate(0)" fill="#282929" fill-rule="evenodd"/>
      </g>
    </g>
  </g>
</svg>
