<svg xmlns="http://www.w3.org/2000/svg" width="32" height="32" viewBox="0 0 32 32">
  <g id="Group_38754" data-name="Group 38754" transform="translate(-273)">
    <rect id="pexels-photo-417473" width="32" height="32" rx="16" transform="translate(273)" fill="#6d757c" opacity="0.05"/>
    <g id="Iconly_Light-Outline_Call" data-name="Iconly/Light-Outline/Call" transform="translate(279 6.001)">
      <g id="Call" transform="translate(2 1.999)">
        <path id="Fill-1" d="M1.842,2.389s-.037.041-.087.089a1.756,1.756,0,0,0-.584,1.363c-.006,1.117.728,3.191,4.265,6.726,3.52,3.518,5.59,4.261,6.71,4.261h.016a1.76,1.76,0,0,0,1.363-.584,1.824,1.824,0,0,1,.133-.126c.777-.782,1.175-1.364,1.172-1.737s-.479-.831-1.134-1.454c-.208-.2-.435-.414-.674-.652-.619-.617-.926-.512-1.6-.275-.933.327-2.213.772-4.2-1.218S5.675,5.514,6,4.581c.236-.674.343-.982-.276-1.6-.243-.242-.46-.471-.661-.682C4.445,1.646,4,1.176,3.62,1.17H3.614c-.374,0-.955.4-1.776,1.221l0,0ZM12.146,16c-1.945,0-4.481-1.548-7.538-4.6S-.011,5.784,0,3.835A2.907,2.907,0,0,1,.936,1.64c.013-.016.059-.061.074-.076C2.13.444,2.884-.009,3.635,0,4.507.011,5.127.664,5.913,1.49c.194.2.405.427.64.661a2.309,2.309,0,0,1,.554,2.815c-.284.814-.53,1.516.942,2.988s2.176,1.226,2.987.94a2.308,2.308,0,0,1,2.815.553c.231.231.45.439.652.632.83.789,1.486,1.413,1.5,2.287.009.745-.443,1.5-1.561,2.623l-.495-.336.418.409A2.905,2.905,0,0,1,12.168,16Z" transform="translate(0 0.001)" fill="#282929" fill-rule="evenodd"/>
      </g>
    </g>
  </g>
</svg>
