<svg xmlns="http://www.w3.org/2000/svg" width="32" height="32" viewBox="0 0 32 32">
  <g id="Group_38744" data-name="Group 38744" transform="translate(-273)">
    <rect id="pexels-photo-417473" width="32" height="32" rx="16" transform="translate(273)" fill="#6d757c" opacity="0.05"/>
    <g id="Iconly_Light-Outline_Edit-Square" data-name="Iconly/Light-Outline/Edit-Square" transform="translate(279 6)">
      <g id="Edit-Square" transform="translate(2 2)">
        <path id="Combined-Shape" d="M7.468.029a.59.59,0,0,1,0,1.18H4.526A3.234,3.234,0,0,0,1.18,4.757V11.3a3.234,3.234,0,0,0,3.346,3.547h6.942A3.234,3.234,0,0,0,14.816,11.3V8.129a.59.59,0,0,1,1.18,0V11.3a4.384,4.384,0,0,1-4.527,4.728H4.526A4.383,4.383,0,0,1,0,11.3V4.757A4.383,4.383,0,0,1,4.526.029ZM14.32.72l.957.957a2.465,2.465,0,0,1,0,3.487L9.37,11.072a2.283,2.283,0,0,1-1.625.673H4.8a.591.591,0,0,1-.59-.605l.074-2.973A2.291,2.291,0,0,1,4.954,6.6h0L10.834.72A2.47,2.47,0,0,1,14.32.72ZM10.35,2.873,5.789,7.434a1.111,1.111,0,0,0-.327.762L5.4,10.565H7.745a1.109,1.109,0,0,0,.791-.327l4.589-4.59Zm1.318-1.318-.484.483,2.775,2.776.485-.484a1.286,1.286,0,0,0,0-1.817l-.957-.957A1.29,1.29,0,0,0,11.668,1.555Z" transform="translate(0 0)" fill="#282929" fill-rule="evenodd"/>
      </g>
    </g>
  </g>
</svg>
