<svg xmlns="http://www.w3.org/2000/svg" width="32" height="32" viewBox="0 0 32 32">
  <g id="Group_38753" data-name="Group 38753" transform="translate(-273)">
    <rect id="pexels-photo-417473" width="32" height="32" rx="16" transform="translate(273)" fill="#6d757c" opacity="0.05"/>
    <g id="Info-Square" transform="translate(281 8)">
      <path id="Combined-Shape" d="M11.467,0A4.389,4.389,0,0,1,16,4.733v6.534A4.389,4.389,0,0,1,11.466,16H4.531A4.388,4.388,0,0,1,0,11.267V4.733A4.388,4.388,0,0,1,4.531,0Zm0,1.2H4.531A3.22,3.22,0,0,0,1.2,4.733v6.534A3.22,3.22,0,0,0,4.531,14.8h6.934A3.221,3.221,0,0,0,14.8,11.267V4.733A3.221,3.221,0,0,0,11.467,1.2Z" transform="translate(0)" fill="#282929" fill-rule="evenodd"/>
      <g id="Group_40347" data-name="Group 40347" transform="translate(0.193 0.058)">
        <path id="Path_61357" data-name="Path 61357" d="M129.068,200.139h-.147l-.147-.073h-.11l-.11-.11-.11-.11c0-.037-.037-.073-.073-.11s0-.11-.037-.147v-.294c.037-.037.037-.073.037-.147s.073-.073.073-.11l.11-.11a.7.7,0,0,1,.661-.22h.147l.11.073.11.11.11.11c0,.037.037.073.037.11a.278.278,0,0,0,.073.147v.294c-.037.037-.037.073-.073.147s-.037.073-.037.11l-.11.11-.11.11h-.11l-.147.073Z" transform="translate(-120.99 -186.922)" fill="#282929"/>
        <path id="Path_61358" data-name="Path 61358" d="M90.951,65.742h-.294a.734.734,0,0,1-.4-.955,2.68,2.68,0,0,1,1.322-1.432,1.8,1.8,0,0,0-.4-3.451,1.808,1.808,0,0,0-2.2,1.762.734.734,0,1,1-1.469,0,3.329,3.329,0,0,1,3.965-3.194,3.268,3.268,0,0,1,.734,6.168,1.358,1.358,0,0,0-.587.624A.7.7,0,0,1,90.951,65.742Z" transform="translate(-82.727 -55.461)" fill="#282929"/>
      </g>
    </g>
  </g>
</svg>
