<svg xmlns="http://www.w3.org/2000/svg" width="32" height="32" viewBox="0 0 32 32">
  <g id="Group_38756" data-name="Group 38756" transform="translate(-273)">
    <rect id="pexels-photo-417473" width="32" height="32" rx="16" transform="translate(273)" fill="#6d757c" opacity="0.05"/>
    <g id="Iconly_Light-Outline_Document" data-name="Iconly/Light-Outline/Document" transform="translate(278.918 6.237)">
      <g id="Document" transform="translate(3 2)">
        <path id="Combined-Shape" d="M10.066,0a3.918,3.918,0,0,1,4.1,4.177v7.171A3.878,3.878,0,0,1,10.1,15.523l-6,0A3.919,3.919,0,0,1,0,11.348V4.177A3.877,3.877,0,0,1,4.066,0l6,0Zm0,1.17-6,0a2.725,2.725,0,0,0-2.9,3v7.171A2.728,2.728,0,0,0,4.1,14.356l6,0a2.726,2.726,0,0,0,2.9-3.005V4.177A2.728,2.728,0,0,0,10.066,1.17Zm-.15,9.337a.585.585,0,0,1,0,1.17H4.285a.585.585,0,0,1,0-1.17Zm0-3.265a.585.585,0,0,1,0,1.17H4.285a.585.585,0,0,1,0-1.17ZM6.434,3.985a.585.585,0,1,1,0,1.17H4.285a.585.585,0,0,1,0-1.17Z" transform="translate(0 0)" fill="#282929" fill-rule="evenodd"/>
      </g>
    </g>
  </g>
</svg>
