<svg xmlns="http://www.w3.org/2000/svg" width="18" height="18" viewBox="0 0 18 18">
  <g id="Iconly_Light-Outline_Close-Square" data-name="Iconly/Light-Outline/Close-Square" transform="translate(-2 -2)">
    <g id="Close-Square" transform="translate(2 2)">
      <path id="Combined-Shape" d="M12.9,0C15.951,0,18,2.14,18,5.324v7.351C18,15.86,15.951,18,12.9,18H5.1C2.048,18,0,15.86,0,12.676V5.324C0,2.14,2.048,0,5.1,0Zm0,1.35H5.1A3.623,3.623,0,0,0,1.35,5.324v7.351A3.623,3.623,0,0,0,5.1,16.65h7.8a3.623,3.623,0,0,0,3.75-3.974V5.324A3.623,3.623,0,0,0,12.9,1.35ZM7.317,6.356,9,8.037l1.68-1.679a.675.675,0,0,1,.954.954L9.952,8.991l1.682,1.683a.675.675,0,1,1-.954.954L9,9.945l-1.679,1.68a.675.675,0,0,1-.954-.954l1.679-1.68L6.363,7.31a.675.675,0,0,1,.954-.954Z" fill="#282929" fill-rule="evenodd"/>
    </g>
  </g>
</svg>
