<svg xmlns="http://www.w3.org/2000/svg" width="18" height="21.048" viewBox="0 0 18 21.048">
  <g id="Group_40328" data-name="Group 40328" transform="translate(-23 -122.5)">
    <g id="Location" transform="translate(23.5 123)">
      <path id="Path" d="M8.529,0A8.512,8.512,0,0,0,0,8.241l0,.285a10.736,10.736,0,0,0,2.19,6.161l.317.413A20.759,20.759,0,0,0,7.04,19.357l.413.278.06.047a1.691,1.691,0,0,0,1.972,0l.063-.051-.024.018a21.125,21.125,0,0,0,3.756-3.1A12.091,12.091,0,0,0,17,8.655v-.1A8.514,8.514,0,0,0,8.784,0Z" fill="#4960e5" stroke="#4960e5" stroke-width="1"/>
      <path id="Path-2" data-name="Path" d="M7.011,0a7,7,0,0,1,6.96,6.792l0,.332a10.64,10.64,0,0,1-3.3,6.859,19.6,19.6,0,0,1-3.483,2.875l-.085.064a.182.182,0,0,1-.238,0l-.082-.062a19.254,19.254,0,0,1-4.9-4.6A9.2,9.2,0,0,1,.019,7.339L0,6.982A7,7,0,0,1,6.771,0Z" transform="translate(1.513 1.518)" fill="#fff"/>
      <path id="Path-3" data-name="Path" d="M2.595,0A2.595,2.595,0,1,0,5.19,2.595,2.595,2.595,0,0,0,2.595,0Z" transform="translate(5.9 6.401)" fill="none" stroke="#282929" stroke-width="1.6"/>
    </g>
  </g>
</svg>
