<svg xmlns="http://www.w3.org/2000/svg" width="20" height="20" viewBox="0 0 20 20">
  <g id="Iconly_Bulk_Arrow---Left-Square" data-name="Iconly/Bulk/Arrow---Left-Square" transform="translate(-2 -2)">
    <g id="Arrow---Left-Square" transform="translate(22 2) rotate(90)">
      <path id="Fill-1" d="M0,5.916v8.168C0,17.623,2.276,20,5.665,20h8.67C17.724,20,20,17.623,20,14.084V5.916C20,2.378,17.723,0,14.334,0H5.665C2.276,0,0,2.378,0,5.916" fill="#4960e5" opacity="0.1"/>
      <g id="Iconly_Light-Outline_Calendar" data-name="Iconly/Light-Outline/Calendar" transform="translate(2.813 17.434) rotate(-90)">
        <g id="Calendar" transform="translate(2 1)">
          <path id="Combined-Shape" d="M7.687,0A.418.418,0,0,1,8.1.418V.89a3,3,0,0,1,1.968.814,2.994,2.994,0,0,1,.794,2.183V8.971a2.825,2.825,0,0,1-3.077,3.01H3.077A2.844,2.844,0,0,1,0,8.929V3.886a2.785,2.785,0,0,1,2.767-3V.418a.418.418,0,0,1,.836,0V.88H7.269V.418A.418.418,0,0,1,7.687,0Zm2.344,4.962H.836V8.929a2.01,2.01,0,0,0,2.241,2.217H7.79a1.992,1.992,0,0,0,2.241-2.175ZM7.914,8.469a.418.418,0,1,1-.005,0Zm-2.473,0a.418.418,0,1,1-.005,0Zm-2.478,0a.418.418,0,1,1-.005,0ZM7.914,6.3a.418.418,0,1,1-.005,0Zm-2.473,0a.418.418,0,1,1-.005,0Zm-2.478,0a.418.418,0,1,1-.005,0ZM7.269,1.716H3.6v.536a.418.418,0,0,1-.836,0V1.729A1.943,1.943,0,0,0,.836,3.886v.24h9.2v-.24a2.154,2.154,0,0,0-.55-1.591,2.153,2.153,0,0,0-1.376-.566v.523a.418.418,0,1,1-.836,0Z" transform="translate(0 0)" fill="#4960e5" fill-rule="evenodd"/>
        </g>
      </g>
    </g>
  </g>
</svg>
