<svg xmlns="http://www.w3.org/2000/svg" width="20" height="20" viewBox="0 0 20 20">
  <g id="Group_40205" data-name="Group 40205" transform="translate(-2368 -435)">
    <g id="Arrow---Left-Square" transform="translate(2388 435) rotate(90)">
      <path id="Fill-1" d="M0,5.916v8.168C0,17.623,2.276,20,5.665,20h8.67C17.724,20,20,17.623,20,14.084V5.916C20,2.378,17.723,0,14.334,0H5.665C2.276,0,0,2.378,0,5.916" fill="#4960e5" opacity="0.1"/>
      <g id="Iconly_Bulk_Camera" data-name="Iconly/Bulk/Camera" transform="translate(1.958 17.588) rotate(-90)">
        <g id="Camera" transform="translate(2 3)">
          <path id="Combined-Shape" d="M8.272,6.3a2.2,2.2,0,0,1,2.2,2.2,2.217,2.217,0,0,1-.65,1.556A2.2,2.2,0,0,1,6.07,8.5a2.165,2.165,0,0,1,.639-1.55A2.2,2.2,0,0,1,8.272,6.3Zm0,.839a1.357,1.357,0,0,0-.969.4,1.314,1.314,0,0,0-.392.951V8.5a1.357,1.357,0,0,0,1.361,1.36A1.366,1.366,0,0,0,9.633,8.5a1.357,1.357,0,0,0-1.361-1.36Zm3.143-.974a.506.506,0,1,1,0,1.013.506.506,0,0,1,0-1.013Z" transform="translate(-2.669 -2.71)" fill="#4960e5"/>
          <path id="Path" d="M8.65,1.813,8.594,1.69C8.443,1.371,8.27,1,8.163.789A1.368,1.368,0,0,0,6.919,0H4.28A1.36,1.36,0,0,0,3.042.789c-.112.224-.3.627-.459.957l-.034.067a.11.11,0,0,1-.106.067A2.444,2.444,0,0,0,0,4.32V7.645a2.444,2.444,0,0,0,2.443,2.44h6.32a2.447,2.447,0,0,0,2.443-2.44V4.32A2.447,2.447,0,0,0,8.763,1.88.127.127,0,0,1,8.65,1.813Z" fill="none" stroke="#4960e5" stroke-width="1"/>
        </g>
      </g>
    </g>
  </g>
</svg>
