<svg xmlns="http://www.w3.org/2000/svg" width="20" height="20" viewBox="0 0 20 20">
  <g id="Group_40206" data-name="Group 40206" transform="translate(-2368 -435)">
    <g id="Arrow---Left-Square" transform="translate(2388 435) rotate(90)">
      <path id="Fill-1" d="M0,5.916v8.168C0,17.623,2.276,20,5.665,20h8.67C17.724,20,20,17.623,20,14.084V5.916C20,2.378,17.723,0,14.334,0H5.665C2.276,0,0,2.378,0,5.916" fill="#f53434" opacity="0.1"/>
      <g id="Iconly_Light-Outline_Delete" data-name="Iconly/Light-Outline/Delete" transform="translate(2.171 18.4) rotate(-90)">
        <g id="Delete" transform="translate(3 2)">
          <path id="Combined-Shape" d="M9.549,3.917a.438.438,0,0,1,.4.471c0,.04-.319,3.951-.5,5.592a1.735,1.735,0,0,1-1.8,1.656c-.777.013-1.526.021-2.259.021-.79,0-1.56-.009-2.321-.024A1.729,1.729,0,0,1,1.309,9.983c-.184-1.655-.5-5.557-.5-5.6a.437.437,0,0,1,.4-.471.449.449,0,0,1,.471.4c0,.025.13,1.619.27,3.195l.028.315c.07.784.142,1.536.2,2.061a.858.858,0,0,0,.908.871c1.457.031,2.944.033,4.547,0a.872.872,0,0,0,.948-.878c.181-1.628.5-5.526.5-5.566A.447.447,0,0,1,9.549,3.917ZM6.612,0A1.185,1.185,0,0,1,7.756.878l.148.735a.524.524,0,0,0,.5.421h1.913a.437.437,0,1,1,0,.874H.437a.437.437,0,1,1,0-.874H2.349l.059,0a.526.526,0,0,0,.446-.416L3,.9A1.191,1.191,0,0,1,4.145,0Zm0,.874H4.145a.308.308,0,0,0-.3.228l-.136.682a1.387,1.387,0,0,1-.075.249H7.121a1.391,1.391,0,0,1-.075-.249L6.9,1.076A.306.306,0,0,0,6.612.875Z" transform="translate(0 0)" fill="#f53434" fill-rule="evenodd"/>
        </g>
      </g>
    </g>
  </g>
</svg>
