<svg id="Arrow---Left-Square" xmlns="http://www.w3.org/2000/svg" width="20" height="20" viewBox="0 0 20 20">
  <g id="Arrow---Left-Square-2" data-name="Arrow---Left-Square" transform="translate(20 0) rotate(90)">
    <path id="Fill-1" d="M0,5.916v8.168C0,17.623,2.276,20,5.665,20h8.67C17.724,20,20,17.623,20,14.084V5.916C20,2.378,17.723,0,14.334,0H5.665C2.276,0,0,2.378,0,5.916" fill="#4960e5" opacity="0.1"/>
    <g id="Group_40124" data-name="Group 40124" transform="translate(-730.085 1389.66) rotate(-90)">
      <path id="Path_54992" data-name="Path 54992" d="M1.5,10.085S3.542,6,7.117,6s5.617,4.085,5.617,4.085S10.691,14.17,7.117,14.17,1.5,10.085,1.5,10.085Z" transform="translate(1372.544 730)" fill="none" stroke="#4960e5" stroke-linecap="round" stroke-linejoin="round" stroke-width="1"/>
      <path id="Path_54993" data-name="Path 54993" d="M16.564,15.032A1.532,1.532,0,1,1,15.032,13.5,1.532,1.532,0,0,1,16.564,15.032Z" transform="translate(1364.629 725.053)" fill="none" stroke="#4960e5" stroke-linecap="round" stroke-linejoin="round" stroke-width="1"/>
    </g>
  </g>
</svg>
