<svg id="Arrow---Left-Square" xmlns="http://www.w3.org/2000/svg" width="20" height="20" viewBox="0 0 20 20">
  <g id="Arrow---Left-Square-2" data-name="Arrow---Left-Square" transform="translate(20 0) rotate(90)">
    <path id="Fill-1" d="M0,5.916v8.168C0,17.623,2.276,20,5.665,20h8.67C17.724,20,20,17.623,20,14.084V5.916C20,2.378,17.723,0,14.334,0H5.665C2.276,0,0,2.378,0,5.916" fill="#4960e5" opacity="0.1"/>
    <g id="Icon_feather-eye-off" data-name="Icon feather-eye-off" transform="translate(2.7 17.1) rotate(-90)">
      <path id="Path_60316" data-name="Path 60316" d="M10.147,13.377a5.025,5.025,0,0,1-3.032,1.09c-3.573,0-5.615-4.234-5.615-4.234A9.68,9.68,0,0,1,4.083,7.09m1.96-.963A4.5,4.5,0,0,1,7.115,6c3.573,0,5.615,4.234,5.615,4.234a9.818,9.818,0,0,1-1.1,1.688M8.2,11.355a1.5,1.5,0,0,1-1.5.456,1.56,1.56,0,0,1-1.1-1.145,1.625,1.625,0,0,1,.44-1.554" transform="translate(0 -2.912)" fill="none" stroke="#4960e5" stroke-linecap="round" stroke-linejoin="round" stroke-width="1"/>
      <path id="Path_60317" data-name="Path 60317" d="M1.5,1.5,12.73,13.142" transform="translate(0)" fill="none" stroke="#4960e5" stroke-linecap="round" stroke-linejoin="round" stroke-width="1"/>
    </g>
  </g>
</svg>
