<svg xmlns="http://www.w3.org/2000/svg" width="9.669" height="8.057" viewBox="0 0 9.669 8.057">
  <path id="Path_61345" data-name="Path 61345" d="M3.923,7.76c-.047-.046-.247-.217-.411-.378A17.476,17.476,0,0,1,.27,2.713,3.72,3.72,0,0,1,0,1.763a1.558,1.558,0,0,1,.176-.721A1.51,1.51,0,0,1,.9.4,7.929,7.929,0,0,1,1.761.195,19.321,19.321,0,0,1,4.828,0,22.339,22.339,0,0,1,7.8.172,6.845,6.845,0,0,1,8.87.447a1.438,1.438,0,0,1,.8,1.271v.046a3.931,3.931,0,0,1-.33,1.064,17.477,17.477,0,0,1-3.2,4.567,4.56,4.56,0,0,1-.446.389,1.437,1.437,0,0,1-.857.275,1.511,1.511,0,0,1-.917-.3" fill="#c4c4c4"/>
</svg>
