<svg xmlns="http://www.w3.org/2000/svg" width="20" height="20" viewBox="0 0 20 20">
  <g id="Iconly_Bulk_Arrow---Left-Square" data-name="Iconly/Bulk/Arrow---Left-Square" transform="translate(-2 -2)">
    <g id="Arrow---Left-Square" transform="translate(22 2) rotate(90)">
      <path id="Fill-1" d="M0,5.916v8.168C0,17.623,2.276,20,5.665,20h8.67C17.724,20,20,17.623,20,14.084V5.916C20,2.378,17.723,0,14.334,0H5.665C2.276,0,0,2.378,0,5.916" fill="#4960e5" opacity="0.1"/>
      <g id="Layer_2" data-name="Layer 2" transform="translate(4 16) rotate(-90)">
        <g id="invisible_box" data-name="invisible box">
          <rect id="Rectangle_12514" data-name="Rectangle 12514" width="12" height="12" fill="none"/>
        </g>
        <g id="icons_Q2" data-name="icons Q2" transform="translate(0.483 0.483)">
          <path id="Path_60311" data-name="Path 60311" d="M7.315,2A5.29,5.29,0,1,0,11.08,3.549,5.315,5.315,0,0,0,7.315,2Zm0,9.663a4.348,4.348,0,1,1,4.348-4.348A4.348,4.348,0,0,1,7.315,11.663Z" transform="translate(-2 -2)" fill="#4960e5"/>
          <path id="Path_60312" data-name="Path 60312" d="M22.483,35.013h-.1l-.1-.048h-.072l-.072-.072-.072-.072c0-.024-.024-.048-.048-.072s0-.072-.024-.1v-.193c.024-.024.024-.048.024-.1s.048-.048.048-.072l.072-.072a.459.459,0,0,1,.435-.145h.1l.072.048.072.072.072.072c0,.024.024.048.024.072a.183.183,0,0,0,.048.1v.193c-.024.024-.024.048-.048.1s-.024.048-.024.072l-.072.072-.072.072h-.072l-.1.048Z" transform="translate(-17.169 -26.316)" fill="#4960e5"/>
          <path id="Path_60313" data-name="Path 60313" d="M17.271,14.841h-.193a.483.483,0,0,1-.266-.628,1.763,1.763,0,0,1,.87-.942A1.184,1.184,0,0,0,17.416,11a1.19,1.19,0,0,0-1.449,1.16.483.483,0,0,1-.966,0,2.19,2.19,0,0,1,2.609-2.1,2.15,2.15,0,0,1,.483,4.058.894.894,0,0,0-.387.411A.459.459,0,0,1,17.271,14.841Z" transform="translate(-11.86 -8.076)" fill="#4960e5"/>
        </g>
      </g>
    </g>
  </g>
</svg>
