<svg xmlns="http://www.w3.org/2000/svg" width="20" height="20" viewBox="0 0 20 20">
  <g id="Iconly_Bulk_Arrow---Left-Square" data-name="Iconly/Bulk/Arrow---Left-Square" transform="translate(-2 -2)">
    <g id="Arrow---Left-Square" transform="translate(22 2) rotate(90)">
      <path id="Fill-1" d="M0,5.916v8.168C0,17.623,2.276,20,5.665,20h8.67C17.724,20,20,17.623,20,14.084V5.916C20,2.378,17.723,0,14.334,0H5.665C2.276,0,0,2.378,0,5.916" transform="translate(0 0)" fill="#4960e5" opacity="0.1"/>
      <g id="Iconly_Light-Outline_Image" data-name="Iconly/Light-Outline/Image" transform="translate(4.135 15.865) rotate(-90)">
        <g id="Image" transform="translate(0 0)">
          <path id="Combined-Shape" d="M8.357,0a3.2,3.2,0,0,1,3.308,3.447V8.211a3.2,3.2,0,0,1-3.308,3.447H3.3A3.2,3.2,0,0,1,0,8.211V3.447A3.2,3.2,0,0,1,3.3,0Zm0,.877H3.3A2.344,2.344,0,0,0,.877,3.447V8.211A2.343,2.343,0,0,0,3.3,10.782H8.357a2.346,2.346,0,0,0,2.431-2.571V3.447A2.346,2.346,0,0,0,8.357.877ZM8.73,5.9l.015.013.011.011.008.007.033.032c.105.106.4.4,1.265,1.294a.438.438,0,1,1-.628.611s-1.2-1.229-1.283-1.312a.538.538,0,0,0-.379-.1.545.545,0,0,0-.369.2C6.044,8.3,6.028,8.316,6.006,8.338a1.277,1.277,0,0,1-1.8-.019s-.543-.552-.553-.563a.379.379,0,0,0-.52.036l-.894.943a.438.438,0,0,1-.636-.6l.893-.943a1.26,1.26,0,0,1,1.775-.053l.56.568a.4.4,0,0,0,.566.006C5.452,7.641,6.725,6.1,6.725,6.1A1.424,1.424,0,0,1,8.73,5.9Zm-4.9-3.2A1.464,1.464,0,1,1,2.369,4.168,1.466,1.466,0,0,1,3.832,2.705Zm0,.877a.587.587,0,1,0,.588.587A.587.587,0,0,0,3.832,3.582Z" transform="translate(0 0)" fill="#4960e5" fill-rule="evenodd"/>
        </g>
      </g>
    </g>
  </g>
</svg>
