<svg xmlns="http://www.w3.org/2000/svg" width="20" height="20" viewBox="0 0 20 20">
  <g id="Iconly_Bulk_Arrow---Left-Square" data-name="Iconly/Bulk/Arrow---Left-Square" transform="translate(-2 -2)">
    <g id="Arrow---Left-Square" transform="translate(22 2) rotate(90)">
      <path id="Fill-1" d="M0,5.916v8.168C0,17.623,2.276,20,5.665,20h8.67C17.724,20,20,17.623,20,14.084V5.916C20,2.378,17.723,0,14.334,0H5.665C2.276,0,0,2.378,0,5.916" fill="#4960e5" opacity="0.1"/>
      <g id="Iconly_Light-Outline_Info-Square" data-name="Iconly/Light-Outline/Info-Square" transform="translate(2.2 17.8) rotate(-90)">
        <g id="Info-Square" transform="translate(2 2)">
          <path id="Combined-Shape" d="M8.311,0A3.181,3.181,0,0,1,11.6,3.43V8.166A3.181,3.181,0,0,1,8.309,11.6H3.284A3.18,3.18,0,0,1,0,8.166V3.43A3.18,3.18,0,0,1,3.284,0Zm0,.87H3.284A2.334,2.334,0,0,0,.87,3.43V8.166a2.334,2.334,0,0,0,2.414,2.56H8.309a2.334,2.334,0,0,0,2.417-2.56V3.43A2.334,2.334,0,0,0,8.311.87ZM5.794,5.363a.435.435,0,0,1,.435.435V8.117a.435.435,0,0,1-.87,0V5.8A.435.435,0,0,1,5.794,5.363Zm0-2.346a.58.58,0,1,1-.006,0Z" transform="translate(0)" fill="#4960e5" fill-rule="evenodd"/>
        </g>
      </g>
    </g>
  </g>
</svg>
