<svg xmlns="http://www.w3.org/2000/svg" width="20" height="20" viewBox="0 0 20 20">
  <g id="Iconly_Bulk_Arrow---Left-Square" data-name="Iconly/Bulk/Arrow---Left-Square" transform="translate(-2 -2)">
    <g id="Arrow---Left-Square" transform="translate(22 2) rotate(90)">
      <path id="Fill-1" d="M0,5.916v8.168C0,17.623,2.276,20,5.665,20h8.67C17.724,20,20,17.623,20,14.084V5.916C20,2.378,17.723,0,14.334,0H5.665C2.276,0,0,2.378,0,5.916" fill="#4960e5" opacity="0.1"/>
      <path id="Fill-4" d="M5.721,10.855,9.469,14.62a.773.773,0,0,0,1.064,0l3.748-3.765A.751.751,0,0,0,13.217,9.8L10.75,12.273V5.918a.75.75,0,1,0-1.5,0v6.355L6.784,9.8a.75.75,0,0,0-1.063,1.059" fill="#4960e5"/>
    </g>
  </g>
</svg>
