<svg xmlns="http://www.w3.org/2000/svg" width="20" height="20" viewBox="0 0 20 20">
  <g id="Iconly_Bulk_Arrow---Left-Square" data-name="Iconly/Bulk/Arrow---Left-Square" transform="translate(-2 -2)">
    <g id="Arrow---Left-Square" transform="translate(22 2) rotate(90)">
      <path id="Fill-1" d="M0,5.916v8.168C0,17.623,2.276,20,5.665,20h8.67C17.724,20,20,17.623,20,14.084V5.916C20,2.378,17.723,0,14.334,0H5.665C2.276,0,0,2.378,0,5.916" fill="#4960e5" opacity="0.1"/>
      <g id="Group_40123" data-name="Group 40123" transform="translate(5.502 15.616) rotate(-90)">
        <path id="Path_59966" data-name="Path 59966" d="M1,8.957l1-2A5.257,5.257,0,0,1,1,5.6Zm.3,1.506a.468.468,0,0,0,.173.033H9.885a.469.469,0,0,0,.156-.027L8.588,7.564a5.243,5.243,0,0,1-5.842,0ZM10.354,9V5.559a5.256,5.256,0,0,1-1.02,1.4ZM1.37,3.388a4.3,4.3,0,0,0,8.6,0,.473.473,0,0,0-.08-.007H1.469A.471.471,0,0,0,1.37,3.388Zm.1-.95H9.885a1.409,1.409,0,0,1,1.409,1.409v6.179a1.409,1.409,0,0,1-1.409,1.409H1.469A1.409,1.409,0,0,1,.061,10.027V3.847A1.409,1.409,0,0,1,1.469,2.439Z" transform="translate(-0.061 -2.439)" fill="#4960e5"/>
        <rect id="Rectangle_12430" data-name="Rectangle 12430" width="1.086" height="1.63" rx="0.543" transform="translate(5.073 2.434)" fill="#4960e5"/>
      </g>
    </g>
  </g>
</svg>
