<svg xmlns="http://www.w3.org/2000/svg" width="15.157" height="15.186" viewBox="0 0 15.157 15.186">
  <path id="Path_61355" data-name="Path 61355" d="M-487.229,498.836a5.923,5.923,0,0,0,3.567,3.567,1.307,1.307,0,0,0,1.509-.823h0a1.278,1.278,0,0,1,2.127-.48l1.921,1.921a1.37,1.37,0,0,1,0,1.852l-1.3,1.3c-1.372,1.372-5.008-.137-8.232-3.361s-4.665-6.86-3.361-8.232l1.3-1.3a1.37,1.37,0,0,1,1.852,0l1.921,1.921a1.278,1.278,0,0,1-.48,2.127h0A1.243,1.243,0,0,0-487.229,498.836Z" transform="translate(492.148 -492.165)" fill="none" stroke="#4960e5" stroke-width="1.3"/>
</svg>
