<svg id="Iconly_Light-Outline_Image" data-name="Iconly/Light-Outline/Image" xmlns="http://www.w3.org/2000/svg" width="18.926" height="18.916" viewBox="0 0 18.926 18.916">
  <g id="Image" transform="translate(0 0)">
    <path id="Combined-Shape" d="M13.559,0c3.21,0,5.367,2.248,5.367,5.593v7.73c0,3.345-2.157,5.593-5.367,5.593h-8.2C2.152,18.916,0,16.668,0,13.323V5.593C0,2.248,2.152,0,5.357,0Zm0,1.422h-8.2c-2.39,0-3.935,1.638-3.935,4.171v7.73c0,2.535,1.545,4.171,3.935,4.171h8.2c2.4,0,3.944-1.637,3.944-4.171V5.593C17.5,3.06,15.955,1.422,13.559,1.422Zm.606,8.154.024.021.018.017.012.012.053.053c.171.171.644.654,2.052,2.1a.711.711,0,1,1-1.018.992s-1.943-1.994-2.081-2.129a.872.872,0,0,0-.615-.168.885.885,0,0,0-.6.32c-2.2,2.673-2.23,2.7-2.266,2.734a2.071,2.071,0,0,1-2.926-.03s-.882-.9-.9-.913a.615.615,0,0,0-.844.058L3.627,14.172A.711.711,0,0,1,2.6,13.194l1.449-1.529a2.044,2.044,0,0,1,2.88-.086l.908.922a.651.651,0,0,0,.919.01c.1-.113,2.161-2.621,2.161-2.621a2.311,2.311,0,0,1,3.253-.314ZM6.218,4.389A2.375,2.375,0,1,1,3.844,6.763,2.379,2.379,0,0,1,6.218,4.389Zm0,1.422a.952.952,0,1,0,.954.952A.952.952,0,0,0,6.217,5.811Z" transform="translate(0 0)" fill="#4960e5" fill-rule="evenodd"/>
  </g>
</svg>
