<svg xmlns="http://www.w3.org/2000/svg" width="20.088" height="18.229" viewBox="0 0 20.088 18.229">
  <g id="Iconly_Bulk_Camera" data-name="Iconly/Bulk/Camera" transform="translate(0.75 0.75)">
    <g id="Camera">
      <path id="Combined-Shape" d="M9.723,6.386a3.647,3.647,0,0,1,3.653,3.648A3.678,3.678,0,0,1,12.3,12.615,3.648,3.648,0,0,1,6.07,10.034a3.592,3.592,0,0,1,1.06-2.572A3.645,3.645,0,0,1,9.723,6.386Zm0,1.393a2.251,2.251,0,0,0-1.608.668,2.18,2.18,0,0,0-.651,1.578v.009A2.252,2.252,0,0,0,9.723,12.29a2.266,2.266,0,0,0,2.258-2.256A2.252,2.252,0,0,0,9.723,7.779Zm5.214-1.615a.84.84,0,1,1,0,1.68.84.84,0,0,1,0-1.68Z" transform="translate(-0.429 -0.435)" fill="#4960e5"/>
      <path id="Path" d="M14.35,3.008l-.093-.2c-.251-.529-.539-1.142-.716-1.495A2.27,2.27,0,0,0,11.478,0H7.1A2.256,2.256,0,0,0,5.047,1.309c-.186.371-.5,1.04-.762,1.588l-.056.111a.182.182,0,0,1-.177.111A4.053,4.053,0,0,0,0,7.167v5.514a4.053,4.053,0,0,0,4.052,4.048H14.536a4.059,4.059,0,0,0,4.052-4.048V7.167a4.059,4.059,0,0,0-4.052-4.048A.211.211,0,0,1,14.35,3.008Z" fill="none" stroke="#4960e5" stroke-width="1.5"/>
    </g>
  </g>
</svg>
