<svg xmlns="http://www.w3.org/2000/svg" width="20" height="20" viewBox="0 0 20 20">
  <g id="Iconly_Bulk_Arrow---Left-Square" data-name="Iconly/Bulk/Arrow---Left-Square" transform="translate(-2.044 -2)">
    <g id="Arrow---Left-Square" transform="translate(22 2) rotate(90)">
      <path id="Fill-1" d="M0,5.916v8.168C0,17.623,2.276,20,5.665,20h8.67C17.724,20,20,17.623,20,14.084V5.916C20,2.378,17.723,0,14.334,0H5.665C2.276,0,0,2.378,0,5.916" transform="translate(0 -0.044)" fill="#4960e5" opacity="0.1"/>
      <g id="Iconly_Bold_Send" data-name="Iconly/Bold/Send" transform="translate(3 16.956) rotate(-90)">
        <g id="Send" transform="translate(2 2)">
          <path id="Path_61350" data-name="Path 61350" d="M9.718.291A.967.967,0,0,0,8.752.039L.7,2.38a.96.96,0,0,0-.692.761,1.127,1.127,0,0,0,.5,1.051L3.03,5.738a.652.652,0,0,0,.8-.1l2.882-2.9a.367.367,0,0,1,.53,0,.381.381,0,0,1,0,.534L4.36,6.176a.662.662,0,0,0-.1.809L5.8,9.527a.955.955,0,0,0,.83.473,1.039,1.039,0,0,0,.125-.005A.975.975,0,0,0,7.572,9.3L9.958,1.262a.982.982,0,0,0-.24-.971" transform="translate(0 0)" fill="#4960e5"/>
        </g>
      </g>
    </g>
  </g>
</svg>
