<svg xmlns="http://www.w3.org/2000/svg" width="25.71" height="37.088" viewBox="0 0 25.71 37.088">
  <g id="Group_40142" data-name="Group 40142" transform="translate(-12.567 -4)">
    <path id="Path_61338" data-name="Path 61338" d="M35.529,19.8a2.7,2.7,0,0,0-1.538.474,2.747,2.747,0,0,0-2.582-1.848,2.7,2.7,0,0,0-1.538.474,2.747,2.747,0,0,0-2.582-1.848,2.685,2.685,0,0,0-1.374.385V10.868a2.747,2.747,0,0,0-3.3-2.692,2.809,2.809,0,0,0-2.191,2.8V26.9l-1.882-2.15a3.434,3.434,0,0,0-4.712-.419l-.481.385a2.005,2.005,0,0,0-.481,2.637l4.9,7.9a11.229,11.229,0,0,0,9.526,5.838A10.989,10.989,0,0,0,38.276,30.1V22.544A2.747,2.747,0,0,0,35.529,19.8ZM36.9,30.1a9.615,9.615,0,0,1-9.615,9.615,9.863,9.863,0,0,1-8.345-5.165l-4.883-7.94a.639.639,0,0,1,.144-.824l.481-.385a2.06,2.06,0,0,1,2.823.254l3.084,3.523a.687.687,0,0,0,1.2-.453V10.971a1.456,1.456,0,0,1,1.085-1.477,1.385,1.385,0,0,1,1.662,1.374V24.6a.687.687,0,1,0,1.374,0V19.8a1.374,1.374,0,1,1,2.747,0V24.6a.687.687,0,1,0,1.374,0V21.17a1.374,1.374,0,0,1,2.747,0V24.6a.687.687,0,1,0,1.374,0v-2.06a1.374,1.374,0,1,1,2.747,0ZM23.166,7.434a.687.687,0,0,0,.687-.687V4.687a.687.687,0,1,0-1.374,0v2.06A.687.687,0,0,0,23.166,7.434Z" fill="#282929"/>
    <path id="Path_61339" data-name="Path 61339" d="M28.676,10.806a.687.687,0,0,0,.687.687h2.06a.687.687,0,0,0,0-1.374h-2.06A.687.687,0,0,0,28.676,10.806Zm-10.989.687h2.06a.687.687,0,1,0,0-1.374h-2.06a.687.687,0,0,0,0,1.374Zm2.946-2.946a.69.69,0,1,0,.975-.975L20.235,6.2a.69.69,0,0,0-.975.975Zm7.356.2a.687.687,0,0,0,.488-.2L29.85,7.173a.69.69,0,0,0-.975-.975L27.5,7.572a.687.687,0,0,0,.488,1.174Z" transform="translate(-1.388 -0.625)" fill="#282929"/>
  </g>
</svg>
