<svg xmlns="http://www.w3.org/2000/svg" width="20" height="20" viewBox="0 0 20 20">
  <g id="Iconly_Bulk_Arrow---Left-Square" data-name="Iconly/Bulk/Arrow---Left-Square" transform="translate(-2 -2)">
    <g id="Arrow---Left-Square" transform="translate(22 2) rotate(90)">
      <path id="Fill-1" d="M0,5.916v8.168C0,17.623,2.276,20,5.665,20h8.67C17.724,20,20,17.623,20,14.084V5.916C20,2.378,17.723,0,14.334,0H5.665C2.276,0,0,2.378,0,5.916" fill="#4960e5" opacity="0.1"/>
      <g id="Iconly_Light-Outline_Add-User" data-name="Iconly/Light-Outline/Add-User" transform="translate(2 17) rotate(-90)">
        <g id="Add-User" transform="translate(2 2)">
          <path id="Combined-Shape" d="M4.614,7.3h.224c1.313.007,4.39.126,4.39,2.156,0,1.882-2.527,2.133-4.492,2.143H4.39C3.077,11.588,0,11.469,0,9.44,0,7.519,2.633,7.3,4.614,7.3Zm0,.879C2.136,8.175.879,8.6.879,9.44s1.257,1.277,3.736,1.277S8.35,10.291,8.35,9.453,7.093,8.175,4.614,8.175ZM4.614,0a3.115,3.115,0,1,1,0,6.231H4.6A3.115,3.115,0,0,1,4.614,0Zm0,.879A2.239,2.239,0,0,0,2.378,3.115,2.226,2.226,0,0,0,4.6,5.352l.016.434V5.352a2.237,2.237,0,0,0,0-4.473Z" transform="translate(0 0)" fill="#4960e5" fill-rule="evenodd"/>
        </g>
      </g>
    </g>
  </g>
</svg>
