<svg xmlns="http://www.w3.org/2000/svg" width="16.587" height="17.172" viewBox="0 0 16.587 17.172">
  <path id="noun-weight-3282144" d="M109.808,30.491h-.978l-1.1-10.456a.887.887,0,0,0-.882-.8h-1.734a2.921,2.921,0,0,0,.252-1.185,2.96,2.96,0,0,0-5.919,0,2.921,2.921,0,0,0,.252,1.185H97.96a.887.887,0,0,0-.882.8l-1.1,10.456H95a.887.887,0,1,0,0,1.775h14.813a.887.887,0,1,0,0-1.775ZM102.4,16.868a1.185,1.185,0,1,1-.838.347A1.185,1.185,0,0,1,102.4,16.868Z" transform="translate(-94.108 -15.094)" fill="#90a0ff"/>
</svg>
